<?xml version="1.0" encoding="UTF-8"?>
<svg width="19px" height="20px" viewBox="0 0 19 20" version="1.1" xmlns="http://www.w3.org/2000/svg" xmlns:xlink="http://www.w3.org/1999/xlink">
    <!-- Generator: Sketch 52.6 (67491) - http://www.bohemiancoding.com/sketch -->
    <title>icon-info</title>
    <desc>Created with Sketch.</desc>
    <g id="Symbols" stroke="none" stroke-width="1" fill="none" fill-rule="evenodd" opacity="0.25">
        <g id="All-View---Single-Course---Red" transform="translate(-19.000000, -310.000000)" fill="#4A4A4A" fill-rule="nonzero">
            <g id="Cat-View---Single-Course---Red">
                <g id="Group-14">
                    <g id="Group-13-Copy">
                        <g id="Group-6" transform="translate(19.000000, 310.000000)">
                            <g id="ant-design:info-circle-outline" transform="translate(0.000000, 0.904535)">
                                <g id="icon-info">
                                    <path d="M9.29821061,0 C4.16343984,0 0,4.23247491 0,9.45238663 C0,14.6722984 4.16343984,18.9047733 9.29821061,18.9047733 C14.4329814,18.9047733 18.5964212,14.6722984 18.5964212,9.45238663 C18.5964212,4.23247491 14.4329814,0 9.29821061,0 Z M9.29821061,17.3012434 C5.03514709,17.3012434 1.57737501,13.7861371 1.57737501,9.45238663 C1.57737501,5.11863616 5.03514709,1.60352988 9.29821061,1.60352988 C13.5612741,1.60352988 17.0190462,5.11863616 17.0190462,9.45238663 C17.0190462,13.7861371 13.5612741,17.3012434 9.29821061,17.3012434 Z" id="Icon-Shape"></path>
                                    <path d="M8.2650761,6.26408162 C8.2650761,6.82341115 8.72762618,7.27683733 9.29821061,7.27683733 C9.86879505,7.27683733 10.3313451,6.82341115 10.3313451,6.26408162 C10.3313451,5.70475208 9.86879505,5.25132591 9.29821061,5.25132591 C8.72762618,5.25132591 8.2650761,5.70475208 8.2650761,6.26408162 Z M9.81477787,8.62717828 L8.78164336,8.62717828 C8.68693936,8.62717828 8.60945427,8.70313496 8.60945427,8.7959709 L8.60945427,14.5349199 C8.60945427,14.6277559 8.68693936,14.7037125 8.78164336,14.7037125 L9.81477787,14.7037125 C9.90948187,14.7037125 9.98696696,14.6277559 9.98696696,14.5349199 L9.98696696,8.7959709 C9.98696696,8.70313496 9.90948187,8.62717828 9.81477787,8.62717828 Z" id="Icon-Shape"></path>
                                </g>
                            </g>
                        </g>
                    </g>
                </g>
            </g>
        </g>
    </g>
</svg>