<svg width="17px" height="21px" viewBox="0 0 17 21" version="1.1" xmlns="http://www.w3.org/2000/svg" xmlns:xlink="http://www.w3.org/1999/xlink">
    <g id="Symbols" stroke="none" stroke-width="1" fill="none" fill-rule="evenodd" opacity="0.5">
        <g id="University---Coaching-Nav" transform="translate(-1222.000000, -144.000000)" fill="">
            <g id="Nav">
                <g id="Primary-Nav" transform="translate(856.000000, 46.000000)">
                    <g id="Cart-Copy" transform="translate(103.000000, 91.000000)">
                        <g id="il-user" transform="translate(271.500000, 17.500000) scale(-1, 1) translate(-271.500000, -17.500000) translate(263.000000, 7.000000)">
                            <g id="icon-user">
                                <path d="M14.8931148,13.77225 C15.3947541,14.00625 15.784918,14.31225 16.0636066,14.69025 C16.3422951,15.06825 16.537377,15.46425 16.6488525,15.87825 C16.7603279,16.29225 16.8346448,16.67925 16.8718033,17.03925 C16.9089617,17.39925 16.9089617,17.67825 16.8718033,17.87625 C16.8346448,18.07425 16.7603279,18.21825 16.6488525,18.30825 C16.3887432,18.52425 16.0728962,18.71325 15.7013115,18.87525 C15.3297268,19.03725 14.9209836,19.18125 14.475082,19.30725 C14.0291803,19.43325 13.5739891,19.53225 13.1095082,19.60425 L11.7439344,19.82025 C10.7034973,19.94625 9.6073224,20.01825 8.45540984,20.03625 C7.28491803,20.01825 6.17945355,19.94625 5.13901639,19.82025 C4.69311475,19.76625 4.2379235,19.69425 3.77344262,19.60425 C3.30896175,19.51425 2.86306011,19.41525 2.4357377,19.30725 C2.0084153,19.19925 1.59967213,19.05525 1.2095082,18.87525 C0.819344262,18.69525 0.49420765,18.50625 0.234098361,18.30825 C0.122622951,18.21825 0.0529508197,18.07875 0.0250819672,17.88975 C-0.00278688525,17.70075 -0.00743169399,17.41725 0.011147541,17.03925 C0.029726776,16.66125 0.104043716,16.27425 0.234098361,15.87825 C0.364153005,15.48225 0.559234973,15.08625 0.819344262,14.69025 C1.07945355,14.29425 1.46961749,13.98825 1.98983607,13.77225 L3.71770492,13.01625 C4.25650273,12.78225 4.73956284,12.53025 5.16688525,12.26025 C5.59420765,11.99025 5.91934426,11.67525 6.14229508,11.31525 C6.3652459,10.95525 6.48601093,10.52325 6.50459016,10.01925 L6.50459016,9.85725 C6.18874317,9.60525 5.95650273,9.30825 5.80786885,8.96625 L5.16688525,7.50825 C4.83245902,7.14825 4.58163934,6.81525 4.41442623,6.50925 C4.26579235,6.25725 4.19147541,6.02325 4.19147541,5.80725 C4.19147541,5.59125 4.34939891,5.48325 4.6652459,5.48325 C4.55377049,4.79925 4.52590164,4.18725 4.58163934,3.64725 C4.61879781,3.19725 4.73027322,2.78325 4.91606557,2.40525 C5.10185792,2.02725 5.43628415,1.83825 5.91934426,1.83825 C6.01224044,1.49625 6.17016393,1.19025 6.39311475,0.92025 C6.59748634,0.68625 6.88546448,0.47025 7.25704918,0.27225 C7.62863388,0.07425 8.12098361,-0.01575 8.73409836,0.00225 C9.29147541,0.00225 9.74666667,0.11925 10.0996721,0.35325 C10.4526776,0.58725 10.759235,0.85725 11.0193443,1.16325 C11.2794536,1.46925 11.4931148,1.76625 11.6603279,2.05425 C11.827541,2.34225 12.0133333,2.54925 12.2177049,2.67525 C12.2920219,2.71125 12.3570492,2.75625 12.4127869,2.81025 C12.4685246,2.86425 12.4685246,2.93625 12.4127869,3.02625 C12.3384699,3.27825 12.264153,3.64725 12.1898361,4.13325 C12.1155191,4.61925 12.1248087,5.06925 12.2177049,5.48325 C12.5521311,5.50125 12.7100546,5.60925 12.6914754,5.80725 C12.6728962,6.00525 12.58,6.23925 12.4127869,6.50925 C12.2269945,6.81525 11.9668852,7.14825 11.632459,7.50825 C11.5024044,7.83225 11.4002186,8.11125 11.3259016,8.34525 C11.2515847,8.57925 11.1679781,8.79525 11.075082,8.99325 C10.9821858,9.19125 10.8892896,9.34425 10.7963934,9.45225 C10.7034973,9.56025 10.564153,9.69525 10.3783607,9.85725 L10.3783607,10.01925 C10.3783607,10.54125 10.4991257,10.97325 10.7406557,11.31525 C10.9821858,11.65725 11.316612,11.97225 11.7439344,12.26025 C12.1712568,12.54825 12.6450273,12.80025 13.1652459,13.01625 C13.6854645,13.23225 14.2614208,13.48425 14.8931148,13.77225 Z" id="Icon-Path"></path>
                            </g>
                        </g>
                    </g>
                </g>
            </g>
        </g>
    </g>
</svg>
