<svg width="16px" height="18px" viewBox="0 0 16 18" version="1.1" xmlns="http://www.w3.org/2000/svg" xmlns:xlink="http://www.w3.org/1999/xlink">
    <g id="Symbols" stroke="none" stroke-width="1" fill="none" fill-rule="evenodd" opacity="0.5">
        <g id="University-Nav---General" transform="translate(-1427.000000, -144.000000)" fill="#120022" fill-rule="nonzero">
            <g id="Nav">
                <g id="Primary-Nav" transform="translate(856.000000, 46.000000)">
                    <g id="Cart" transform="translate(386.000000, 91.000000)">
                        <g id="ant-design:shopping-fill" transform="translate(185.000000, 7.000000)">
                            <g id="Icon">
                                <path d="M14.6666667,4.78125 L11.8333333,4.78125 L11.8333333,4.44375 C11.8333333,2.300625 10.1166667,0.5625 8,0.5625 C5.88333333,0.5625 4.16666667,2.300625 4.16666667,4.44375 L4.16666667,4.78125 L1.33333333,4.78125 C0.964583333,4.78125 0.666666667,5.08289063 0.666666667,5.45625 L0.666666667,16.7625 C0.666666667,17.1358594 0.964583333,17.4375 1.33333333,17.4375 L14.6666667,17.4375 C15.0354167,17.4375 15.3333333,17.1358594 15.3333333,16.7625 L15.3333333,5.45625 C15.3333333,5.08289063 15.0354167,4.78125 14.6666667,4.78125 Z M10.3333333,4.78125 L5.66666667,4.78125 L5.66666667,4.44375 C5.66666667,3.13804688 6.71041667,2.08125 8,2.08125 C9.28958333,2.08125 10.3333333,3.13804688 10.3333333,4.44375 L10.3333333,4.78125 Z" id="icon-cart"></path>
                            </g>
                        </g>
                    </g>
                </g>
            </g>
        </g>
    </g>
</svg>
