<?xml version="1.0" encoding="utf-8"?>
<!-- Generator: Adobe Illustrator 23.0.4, SVG Export Plug-In . SVG Version: 6.00 Build 0)  -->
<svg version="1.1" id="logo" xmlns="http://www.w3.org/2000/svg" xmlns:xlink="http://www.w3.org/1999/xlink" x="0px" y="0px"
	 width="280.597px" height="89.816px" viewBox="0 0 280.597 89.816" enable-background="new 0 0 280.597 89.816"
	 xml:space="preserve">
<g id="mark">
	<path d="M41.836,6.416l1.485-0.198c0.086-0.009,0.146-0.083,0.131-0.168c-0.114-0.657-0.317-3.089,0.64-4.069
		c1.611-1.651,10.407-0.567,10.546-0.797c1.039-0.57-7.569-1.471-9.87-1.095c-2.569,0.419-3.439,1.255-3.069,6.208
		C41.704,6.367,41.766,6.424,41.836,6.416z"/>
	<path fill="#C10230" d="M41.729,8.129l0.028,0.75c0,0,0.079,0.167,0.205,0.164c10.262-0.204,24.739,5.266,24.841,5.305
		c0.003,0.001-0.002,0,0.001,0c0.048,0.014,3.064,0.911,3.153,0.365c0.122-0.741-0.437-3.866-0.325-4.439
		c0.113-0.581,0.154-1.614-0.439-2.184c-0.409-0.393-2.894-1.194-11.231-1.266C48.19,6.741,41.945,7.56,41.792,7.701
		C41.712,7.776,41.729,8.129,41.729,8.129z"/>
	<path d="M72.781,14.484c0,0,7.346,1.792,7.346,4.466c0,1.405-3.708,1.342-9.103-0.271c-0.733-0.219-5.046-1.899-12.103-4.264
		c-4.263-1.428-19.601-5.345-25.572-3.827c-0.663,0.169-3.524,0.393-3.814,3.152c-0.253,2.405,1.43,4.563,1.835,4.648
		c0.329,0.069-0.253-0.718-0.277-1.757c-0.07-3.071,3.108-4.663,10.932-3.993c6.766,0.458,14.561,2.702,18.501,4.016
		c0.829,0.276,7.032,2.459,7.956,2.814c0.251,0.097,0.46,0.306,0.522,0.497c0.212,0.656,0.11,3.13,0.072,3.379
		c-0.066,0.433,0.734-2.631,0.904-3.285c0.018-0.068,0.083-0.106,0.15-0.086c1.091,0.316,9.401,2.617,10.604-0.241
		C82.193,16.268,72.781,14.484,72.781,14.484z"/>
	<path d="M64.18,2.08c0.008,0,0.016,0,0.024,0c0.219-0.008,0.446-0.023,0.677-0.039c1.072-0.072,2.706-0.194,3.355,0.395
		c0.718,0.651,0.776,1.434,0.815,1.952c0.02,0.279,0.034,0.463,0.153,0.551c0.029,0.021,0.073,0.043,0.135,0.043
		c0.019,0,0.04-0.002,0.062-0.007c0.342-0.077,0.367-1.297,0.367-1.309c0.015-0.844-0.334-1.541-0.983-1.963
		c-0.756-0.491-2.193-0.396-3.073-0.35c-0.165,0.009-0.328,0.017-0.488,0.022c-0.036,0.001-1.004,0.063-1.027,0.064
		C64,1.453,63.829,1.636,63.839,1.823C63.846,1.943,63.94,2.08,64.18,2.08z"/>
	<path d="M68.583,28.025c-0.253-0.529-0.888-0.244-1.659-0.356c-0.689-0.1-1.343-0.225-2.012-0.412
		c-0.857-0.239-1.721-0.479-2.559-0.779c-0.883-0.316-1.605-0.458-2.421-0.437c-0.62,0.017-1.659,0.292-2.124,0.964
		c-0.3,0.434-0.951-0.205-1.413-0.53c-0.606-0.426-3.002-1.908-3.295-2.316c-0.255-0.357-0.155-0.501,0.077-0.802
		c0.589-0.767,3.444-4.222,3.026-5.282c-0.389-0.985-1.088-1.203-1.758-1.405c-1.347-0.406-11.368-2.924-12.755-1.886
		c-0.801,0.599-1.146,2.216-1.512,3.215c-0.394,1.074-0.689,2.189-0.79,3.329c-0.204,2.291,0.083,2.694,0.405,3.742
		c0.298,0.97,1.333,1.914,1.053,2.901c-0.164,0.578-0.354,1.373,0.51,0.809c0.658-0.43,1.551-1.044,1.985-1.705
		c0.354-0.539,0.136-1.029-0.102-1.567c-0.309-0.697-0.513-1.377-0.59-2.142c-0.14-1.395,0.229-2.644,1.75-2.644
		c1.458,0,2.491,1.417,3.225,2.507c0.729,1.082,1.537,2.169,2.987,2.08c0.989-0.061,1.401-0.494,2.235,0.108l3.646,2.631
		c0.06,0.043,0.067,0.128,0.018,0.182c-0.778,0.853-1.329,1.804-0.868,3.021c0.362,0.956,1.156,1.447,2.089,1.735
		c1.286,0.397,2.509,0.405,3.785-0.021c0.875-0.292,1.672-0.96,2.526-1.216c0.748-0.224,0.406,0.523,0.976,0.764
		C65.646,32.777,69.004,28.903,68.583,28.025z M60.359,31.849c-0.431,0-0.781-0.35-0.781-0.781s0.349-0.781,0.781-0.781
		s0.781,0.349,0.781,0.781C61.14,31.499,60.791,31.849,60.359,31.849z"/>
	<path d="M70.201,28.008c-0.635-0.339-0.428,2.007-3.532,4.587c-0.143,0.119-0.403,0.581-0.177,0.685
		C68.15,33.455,71.102,28.283,70.201,28.008z"/>
</g>
<g id="wordmark">
	<path d="M118.704,27.274l-2.85,11.788c-0.851-0.933-1.886-1.659-3.106-2.18c-1.22-0.519-2.602-0.78-4.144-0.78
		c-2.189,0-4.35,0.404-6.483,1.211s-4.086,1.91-5.859,3.31c-1.774,1.399-3.309,3.033-4.602,4.898
		c-1.295,1.866-2.198,3.858-2.709,5.974c-0.512,2.118-0.572,4.109-0.18,5.975c0.391,1.866,1.136,3.498,2.234,4.898
		c1.096,1.399,2.516,2.503,4.259,3.31s3.726,1.211,5.951,1.211c1.722,0,3.412-0.386,5.07-1.157c1.657-0.771,3.131-1.821,4.421-3.149
		l-0.833,3.445h7.535l9.37-38.753h-8.074V27.274z M113.172,51.494c-0.269,1.113-0.738,2.162-1.407,3.149
		c-0.67,0.987-1.45,1.839-2.341,2.557c-0.892,0.718-1.882,1.292-2.973,1.722c-1.092,0.431-2.194,0.646-3.305,0.646
		c-1.113,0-2.11-0.215-2.992-0.646c-0.883-0.43-1.596-1.004-2.14-1.722c-0.544-0.717-0.912-1.569-1.104-2.557
		c-0.192-0.986-0.154-2.036,0.115-3.149c0.269-1.111,0.737-2.161,1.407-3.148c0.669-0.987,1.449-1.839,2.34-2.557
		s1.882-1.292,2.973-1.723c1.09-0.43,2.192-0.646,3.305-0.646c1.111,0,2.109,0.215,2.993,0.646c0.882,0.431,1.595,1.005,2.14,1.723
		c0.544,0.718,0.912,1.57,1.104,2.557C113.479,49.333,113.44,50.383,113.172,51.494z"/>
	<path d="M156.302,45.52c-0.393-1.865-1.137-3.499-2.233-4.898c-1.097-1.399-2.526-2.502-4.286-3.31
		c-1.761-0.807-3.735-1.211-5.924-1.211c-1.543,0-3.057,0.288-4.542,0.861c-1.484,0.574-2.873,1.382-4.165,2.422l2.928-12.11h-8.074
		l-9.37,38.753h7.535l0.872-3.606c0.603,1.364,1.542,2.449,2.819,3.256c1.275,0.807,2.793,1.211,4.551,1.211
		c2.188,0,4.358-0.404,6.509-1.211s4.113-1.911,5.887-3.31c1.773-1.399,3.307-3.032,4.602-4.898c1.294-1.865,2.198-3.857,2.71-5.975
		C156.634,49.378,156.694,47.386,156.302,45.52z M148.049,51.494c-0.269,1.113-0.738,2.162-1.407,3.149
		c-0.67,0.987-1.45,1.839-2.341,2.557c-0.892,0.718-1.882,1.292-2.973,1.722c-1.091,0.431-2.193,0.646-3.305,0.646
		c-1.113,0-2.11-0.215-2.992-0.646c-0.883-0.43-1.596-1.004-2.14-1.722c-0.544-0.717-0.912-1.569-1.104-2.557
		c-0.192-0.986-0.154-2.036,0.115-3.149c0.269-1.111,0.737-2.161,1.407-3.148c0.669-0.987,1.449-1.839,2.34-2.557
		c0.891-0.718,1.882-1.292,2.973-1.723c1.09-0.43,2.192-0.646,3.305-0.646c1.112,0,2.109,0.215,2.993,0.646
		c0.882,0.431,1.595,1.005,2.14,1.723c0.544,0.718,0.912,1.57,1.104,2.557C148.356,49.333,148.318,50.383,148.049,51.494z"/>
	<path d="M187.116,40.622c-1.115-1.399-2.562-2.502-4.34-3.31c-1.778-0.807-3.78-1.211-6.004-1.211c-2.226,0-4.422,0.404-6.59,1.211
		c-2.169,0.807-4.149,1.91-5.94,3.31c-1.792,1.399-3.335,3.033-4.629,4.898c-1.295,1.866-2.198,3.858-2.709,5.974
		c-0.512,2.118-0.572,4.109-0.18,5.975c0.391,1.866,1.146,3.498,2.261,4.898c1.115,1.399,2.561,2.503,4.34,3.31
		c1.777,0.807,3.779,1.211,6.005,1.211c1.758,0,3.508-0.261,5.248-0.781c1.74-0.519,3.394-1.238,4.961-2.153s2.999-2.019,4.299-3.31
		c1.299-1.292,2.4-2.691,3.302-4.198h-8.935c-0.944,0.933-2.041,1.687-3.292,2.261s-2.522,0.861-3.814,0.861
		c-1.759,0-3.191-0.493-4.298-1.48c-1.107-0.986-1.779-2.251-2.016-3.795h23.467c0.184-0.466,0.358-0.923,0.52-1.372
		c0.162-0.448,0.304-0.924,0.426-1.427c0.512-2.117,0.571-4.108,0.179-5.974C188.984,43.654,188.231,42.021,187.116,40.622z
		 M166.15,48.642c0.979-1.527,2.26-2.779,3.841-3.756c1.582-0.976,3.251-1.465,5.01-1.465c1.722,0,3.146,0.489,4.275,1.465
		c1.127,0.977,1.811,2.229,2.052,3.756H166.15z"/>
	<path d="M193.817,38.685l-0.068-0.012l-3.1,12.821c-0.512,2.118-0.626,4.109-0.341,5.975c0.284,1.866,0.921,3.498,1.911,4.898
		c0.989,1.399,2.31,2.503,3.963,3.31c1.652,0.807,3.591,1.211,5.816,1.211h1.077l1.77-7.32c-1.113,0-2.11-0.215-2.992-0.646
		c-0.883-0.43-1.596-1.004-2.14-1.722c-0.545-0.717-0.912-1.569-1.104-2.557c-0.192-0.986-0.154-2.036,0.115-3.149l1.848-7.643
		h10.872l0.503-2.08L193.817,38.685z"/>
	<polygon points="204.579,27.274 196.505,27.274 194.233,36.672 202.321,36.613 	"/>
	<path d="M219.517,43.852h4.647l-12.15-2.069l-0.068-0.012l-0.503,2.08l-1.848,7.643c-0.512,2.118-0.626,4.109-0.341,5.975
		c0.284,1.866,0.921,3.498,1.911,4.898c0.989,1.399,2.31,2.503,3.963,3.31c1.652,0.807,3.591,1.211,5.816,1.211h1.077l1.77-7.32
		c-1.113,0-2.11-0.215-2.992-0.646c-0.883-0.43-1.596-1.004-2.14-1.722c-0.545-0.717-0.912-1.569-1.104-2.557
		c-0.192-0.986-0.154-2.036,0.115-3.149L219.517,43.852z"/>
	<polygon points="223.525,27.274 215.451,27.274 213.213,36.532 221.301,36.473 	"/>
	<path d="M244.636,58.707c-1.251,0.574-2.522,0.861-3.814,0.861c-1.759,0-3.191-0.493-4.298-1.48
		c-1.107-0.986-1.779-2.251-2.016-3.795h23.467c0.184-0.466,0.358-0.923,0.52-1.372c0.162-0.448,0.304-0.924,0.426-1.427
		c0.512-2.117,0.571-4.108,0.179-5.974c-0.393-1.865-1.146-3.499-2.261-4.898c-1.115-1.399-2.562-2.502-4.34-3.31
		c-1.778-0.807-3.78-1.211-6.004-1.211c-2.226,0-4.422,0.404-6.59,1.211c-2.169,0.807-4.149,1.91-5.94,3.31
		c-1.792,1.399-3.335,3.033-4.629,4.898c-1.295,1.866-2.198,3.858-2.709,5.974c-0.512,2.118-0.572,4.109-0.18,5.975
		c0.391,1.866,1.146,3.498,2.261,4.898c1.115,1.399,2.561,2.503,4.34,3.31c1.778,0.807,3.779,1.211,6.005,1.211
		c1.758,0,3.508-0.261,5.248-0.781c1.74-0.519,3.394-1.238,4.961-2.153s2.999-2.019,4.299-3.31c1.299-1.292,2.4-2.691,3.302-4.198
		h-8.935C246.984,57.38,245.886,58.133,244.636,58.707z M239.715,44.886c1.582-0.976,3.251-1.465,5.01-1.465
		c1.722,0,3.146,0.489,4.275,1.465c1.127,0.977,1.811,2.229,2.052,3.756h-15.178C236.853,47.115,238.133,45.863,239.715,44.886z"/>
	<path d="M279.521,36.101c-2.225,0-4.359,0.404-6.402,1.211c-2.044,0.807-3.898,1.91-5.564,3.31
		c-1.666,1.399-3.093,3.033-4.279,4.898c-1.187,1.866-2.036,3.858-2.548,5.974l-3.514,14.533h8.074l3.514-14.533
		c0.269-1.111,0.737-2.161,1.407-3.148c0.669-0.987,1.449-1.839,2.34-2.557s1.882-1.292,2.973-1.723
		c1.09-0.43,2.192-0.646,3.305-0.646l1.77-7.32L279.521,36.101L279.521,36.101z"/>
	<path d="M21.312,63.924c-1.219-1.53-2.07-3.311-2.575-5.281c-5.775-0.093-6.436-0.287-7.041-0.583
		c-0.883-0.43-1.596-1.004-2.14-1.722c-0.545-0.718-0.912-1.569-1.104-2.557c-0.192-0.986-0.154-2.036,0.115-3.149l5.856-24.221
		H6.35L0.494,50.633c-0.512,2.118-0.626,4.109-0.341,5.975c0.284,1.866,0.921,3.498,1.911,4.898c0.989,1.399,2.31,2.503,3.963,3.31
		c1.652,0.808,3.591,1.211,5.816,1.211h11.593C22.649,65.398,21.932,64.702,21.312,63.924z"/>
	<path d="M51.4,40.622c-1.115-1.399-2.562-2.502-4.34-3.31c-1.778-0.807-3.78-1.211-6.004-1.211c-2.226,0-4.422,0.404-6.59,1.211
		c-2.169,0.807-4.149,1.91-5.94,3.31c-1.792,1.399-3.335,3.033-4.629,4.898c-1.295,1.866-2.198,3.858-2.709,5.974
		c-0.512,2.118-0.572,4.109-0.18,5.975c0.391,1.866,1.146,3.498,2.261,4.898c1.115,1.399,2.561,2.503,4.34,3.31
		c1.778,0.807,3.779,1.211,6.005,1.211c1.758,0,3.508-0.261,5.248-0.781c1.74-0.519,3.394-1.238,4.961-2.153
		c1.567-0.915,2.999-2.019,4.299-3.31c1.299-1.292,2.4-2.691,3.303-4.198H42.49c-0.944,0.933-2.041,1.687-3.292,2.261
		s-2.522,0.861-3.814,0.861c-1.759,0-3.191-0.493-4.298-1.48c-1.107-0.986-1.779-2.251-2.016-3.795h23.467
		c0.184-0.466,0.358-0.923,0.52-1.372c0.162-0.448,0.304-0.924,0.426-1.427c0.512-2.117,0.571-4.108,0.179-5.974
		C53.268,43.654,52.515,42.021,51.4,40.622z M30.434,48.642c0.979-1.527,2.26-2.779,3.841-3.756c1.582-0.976,3.251-1.465,5.01-1.465
		c1.722,0,3.146,0.489,4.275,1.465c1.127,0.977,1.811,2.229,2.052,3.756H30.434z"/>
	<path d="M85.551,40.622c-1.097-1.399-2.526-2.502-4.286-3.31c-1.761-0.807-3.736-1.211-5.924-1.211
		c-2.225,0-4.404,0.404-6.536,1.211c-2.133,0.807-4.086,1.91-5.859,3.31c-1.774,1.399-3.309,3.033-4.602,4.898
		c-1.295,1.866-2.198,3.858-2.709,5.974c-0.512,2.118-0.572,4.109-0.18,5.975c0.391,1.866,1.136,3.498,2.234,4.898
		c1.096,1.399,2.516,2.503,4.259,3.31s3.726,1.211,5.951,1.211c1.758,0,3.47-0.404,5.137-1.211c1.666-0.807,3.13-1.892,4.393-3.256
		l-0.872,3.606h7.535l3.514-14.533c0.512-2.117,0.571-4.108,0.18-5.974C87.392,43.654,86.648,42.021,85.551,40.622z M79.855,51.494
		c-0.269,1.113-0.738,2.162-1.407,3.149c-0.67,0.987-1.45,1.839-2.341,2.557c-0.892,0.718-1.882,1.292-2.973,1.722
		c-1.092,0.431-2.194,0.646-3.305,0.646c-1.113,0-2.11-0.215-2.992-0.646c-0.883-0.43-1.596-1.004-2.14-1.722
		c-0.544-0.717-0.912-1.569-1.104-2.557c-0.192-0.986-0.154-2.036,0.115-3.149c0.269-1.111,0.737-2.161,1.407-3.148
		c0.669-0.987,1.449-1.839,2.34-2.557s1.882-1.292,2.973-1.723c1.09-0.43,2.192-0.646,3.305-0.646c1.111,0,2.109,0.215,2.993,0.646
		c0.882,0.431,1.595,1.005,2.14,1.723c0.544,0.718,0.912,1.57,1.104,2.557C80.162,49.333,80.123,50.383,79.855,51.494z"/>
	<polygon fill="#C10230" points="212.182,40.797 227.591,43.421 228.404,40.49 229.257,37.414 229.147,37.415 212.971,37.534 
		193.991,37.674 193.845,37.675 193.985,37.699 	"/>
</g>
</svg>
