<?xml version="1.0" encoding="utf-8"?>
<!-- Generator: Adobe Illustrator 23.0.4, SVG Export Plug-In . SVG Version: 6.00 Build 0)  -->
<svg version="1.1" id="Layer_1" xmlns="http://www.w3.org/2000/svg" xmlns:xlink="http://www.w3.org/1999/xlink" x="0px" y="0px"
	 width="249px" height="123px" viewBox="0 0 249 123" enable-background="new 0 0 249 123" xml:space="preserve">
<title>Logo</title>
<desc>Created with Sketch.</desc>
<g id="Logo">
	<g id="David_Leadbetter_Golf-Academy-logo_black_background_CMYK" transform="translate(36.000000, 6.000000)">
		<path id="Fill-4" fill-rule="evenodd" clip-rule="evenodd" d="M64.418,49.095v0.81c0.046-0.051,0.122-0.083,0.165-0.126
			C64.539,49.539,64.502,49.29,64.418,49.095"/>
		<path id="Fill-5" fill-rule="evenodd" clip-rule="evenodd" d="M64.601,48v-1c-0.282,0.365-0.242,0.656-0.037,1H64.601"/>
		<path id="Fill-6" fill-rule="evenodd" clip-rule="evenodd" fill="#AE2534" d="M115.687,16.578
			c-0.087-0.758-0.188-1.274-0.213-2.265c0.064-0.738,0.147-1.461,0.213-2.177c-0.087-0.412-0.231-0.558-0.528-0.825
			c-0.755-0.21-1.051-0.287-1.788-0.413c-0.294-0.061-0.567-0.123-0.821-0.161c-0.862-0.165-1.494-0.291-2.441-0.478
			c-2.124-0.265-3.871-0.574-6.398-0.819c-0.192-0.019-0.379-0.019-0.566-0.04c-2.424-0.167-4.043-0.251-6.676-0.373
			c-1.513,0-2.671-0.061-4.522,0c-1.685,0.084-3.285,0.145-5.028,0.246c-0.341,0.022-0.695,0.042-1.074,0.064
			c-2.968,0.348-5.746,0.742-8.609,1.133c-0.147,0.283-0.255,0.454-0.231,0.842c0.041,0.226,0.17,0.493,0.442,0.719
			c1.031,0.083,1.956,0.064,2.946,0.106l2.631,0.207c1.832,0.119,2.587,0.246,3.896,0.387c0.064,0,0.127,0.023,0.186,0.023
			c2.128,0.287,3.662,0.532,5.683,0.925l4.945,1.155l5.413,1.479l2.459,0.682c2.232,0.636,4.147,1.273,6.293,1.97
			c0.212,0.065,0.442,0.13,0.653,0.211c0.987,0.287,1.936,0.593,2.924,0.825c0.338-0.045,0.463-0.086,0.526-0.415
			C115.898,18.597,115.791,17.588,115.687,16.578"/>
		<path id="Fill-7" fill-rule="evenodd" clip-rule="evenodd" d="M124,26.293c-0.717,0.022-1.012,0-1.794-0.104
			c-0.25,0-0.481-0.019-0.696-0.061c-0.505-0.04-0.923-0.127-1.518-0.246c-1.266-0.23-1.519-0.311-2.53-0.618
			c-1.008-0.353-2.021-0.703-3.055-1.033c-0.53-0.187-1.055-0.371-1.561-0.559c-1.623-0.575-3.244-1.158-4.848-1.731
			c-1.708-0.64-3.079-1.119-4.573-1.656c-0.338-0.101-0.657-0.204-0.994-0.324c-3.837-1.262-4.871-1.594-7.378-2.358
			c-3.183-0.906-4.3-1.198-6.746-1.796c-0.444-0.081-0.801-0.158-1.137-0.246c-1.181-0.226-1.898-0.368-3.689-0.679
			c-1.626-0.311-2.51-0.395-4.008-0.603c-1.667-0.123-2.593-0.161-3.898-0.226c-0.192,0-0.359,0-0.529,0
			c-1.033,0-1.833-0.041-2.821-0.041c-0.529-0.042-0.867,0.041-1.395,0c-1.116,0.106-2.506,0.245-2.887,0.398
			c-0.59,0.035-1.032,0.18-1.75,0.426c-0.463,0.207-0.716,0.357-1.032,0.557c-0.105,0.064-0.211,0.126-0.337,0.209
			c-0.485,0.334-0.821,0.512-1.306,0.99c-0.358,0.354-0.676,0.784-0.906,1.197c-0.211,0.411-0.357,0.741-0.528,1.24
			C62,19.525,62,19.858,62,20.268c0.106,0.845,0.19,1.255,0.402,1.773c0.211,0.392,0.422,0.702,0.673,1.009
			c0.34,0.335,0.696,0.687,1.117,0.868c0.233-0.042,0.17-0.265,0.106-0.43c-0.126-0.33-0.441-0.599-0.611-1.178
			c-0.127-0.598-0.02-0.928,0.128-1.504c0.377-0.725,0.801-1.052,1.348-1.485c0.024-0.022,0.064-0.068,0.086-0.084
			c0.822-0.622,1.538-1.035,2.528-1.55c1.245-0.475,1.901-0.702,3.478-0.947c1.203-0.085,2.173-0.169,3.585-0.21
			c0.063,0,0.147,0,0.21,0c0.949-0.04,1.815-0.04,2.848,0c1.813,0.125,3.562,0.271,5.48,0.517c1.307,0.207,2.551,0.415,3.797,0.661
			c1.368,0.248,2.716,0.537,4.192,0.825c2.127,0.537,3.607,0.867,5.88,1.592c2.006,0.621,3.734,1.154,6.032,1.918l0.15,0.039
			l4.466,1.511c1.622,0.577,2.993,0.989,4.723,1.564c0.082,0.042,0.148,0.066,0.232,0.108c0.296,0.123,0.466,0.18,0.928,0.515
			c0.316,0.662,0.381,0.948,0.528,1.672c0.082,0.453,0.168,0.909,0.253,1.361c0.127,0.104,0.212,0.127,0.378,0.189
			c0.234-0.434,0.336-0.683,0.528-1.446c0.085-0.292,0.148-0.556,0.211-0.848c0.298-0.162,0.444-0.187,0.737-0.204
			c0.467,0.081,0.909,0.141,1.372,0.204c0.78,0.145,1.18,0.246,2.108,0.333c0.676,0.081,0.928,0.139,1.621,0.184
			c0.024,0.019,0.046,0.019,0.063,0.019c1.116,0.042,1.755,0.065,2.741,0c0.632-0.064,0.906-0.104,1.498-0.269
			c0.108-0.166,0.169-0.288,0.188-0.473c-0.398-0.103-0.59-0.129-0.863-0.129C124.864,26.334,124.57,26.334,124,26.293"/>
		<path id="Fill-8" fill-rule="evenodd" clip-rule="evenodd" d="M130.905,22.262c-0.355-0.671-0.543-1.002-1.046-1.573
			c-0.689-0.636-0.877-0.697-1.672-1.211c-0.645-0.331-0.959-0.513-1.671-0.716c-0.691-0.206-0.775-0.267-1.463-0.41
			c-1.17-0.187-1.318-0.187-2.09-0.206c-0.545-0.039-1.042-0.08-1.527-0.122c-1.088-0.042-2.129-0.042-3.551,0.122
			c-0.419,0.164-0.585,0.286-0.773,0.513c-0.128,0.987-0.17,1.333,0,1.949c0.148,0.527,0.292,0.815,0.733,1.04
			c0.855,0.081,1.043,0.023,1.773-0.099c0.462-0.126,0.692-0.168,1.359-0.208c0.188-0.02,0.333-0.02,0.459-0.02
			c0.358,0.02,0.583,0.061,1.109,0.126c0.795,0.061,1.105,0.145,1.882,0.305c0.71,0.145,0.855,0.225,1.879,0.614
			c0.837,0.411,0.986,0.45,1.569,1.23c0.359,0.697,0.421,0.884,0.526,1.458c0.038,0.286,0.101,0.469,0.206,0.713
			c0.082,0.229,0.229,0.27,0.524,0.209c0.416-0.251,0.688-0.698,1.045-1.128c0.229-0.41,0.48-0.78,0.73-1.253
			C131.009,23.146,131.052,22.738,130.905,22.262"/>
		<path id="Fill-9" fill-rule="evenodd" clip-rule="evenodd" d="M117.784,38.069c-0.253-0.184-0.492,0.041-0.727,0.222
			c-0.397,0.609-0.775,1.234-1.187,1.821c-0.775,1.238-1.917,2.57-2.767,3.36c-0.083,0.086-0.16,0.165-0.219,0.226
			c-0.534,0.464-0.988,0.786-1.502,1.192c-0.258,0.264-0.456,0.75-0.355,0.934c0.117,0.101,0.433,0.279,0.69,0.101
			c0.395-0.285,0.771-0.568,1.166-0.869c0.534-0.425,1.088-0.876,1.62-1.339c0.888-0.892,1.404-1.52,1.937-2.273l1.007-1.839
			l0.496-0.908C118.063,38.49,117.983,38.147,117.784,38.069"/>
		<path id="Fill-10" fill-rule="evenodd" clip-rule="evenodd" d="M110.142,1.974c0.959,0.088,1.224,0.133,1.938,0.335
			c0.04,0.021,0.083,0.046,0.121,0.046c0.246,0.134,0.45,0.204,0.897,0.514c0.489,0.316,0.553,0.361,0.856,0.855
			c0.303,0.677,0.447,1.036,0.47,2.091c0.08-0.046,0.141,0.225,0.199,0.18c0.062,0.046,0.123-0.226,0.165-0.201
			c0.103-0.338,0.143-0.475,0.166-0.992c0.102-0.602,0.018-1.011-0.123-1.708c-0.187-0.514-0.388-0.826-0.695-1.165
			c-0.061-0.046-0.468-0.388-1.16-0.631c-0.326-0.091-0.55-0.157-0.776-0.196c-0.408-0.092-0.773-0.117-1.549-0.092
			C109.775,1.14,108.9,1.277,108,1.411c0.022,0.205,0.066,0.38,0.206,0.564C109.102,1.974,109.512,1.974,110.142,1.974"/>
		<path id="Fill-11" fill-rule="evenodd" clip-rule="evenodd" d="M102.609,42.861c-0.022,0-0.022,0-0.046,0
			c-0.712,0-1.283-0.665-1.259-1.457c0-0.793,0.587-1.435,1.305-1.458c0,0,0,0,0.017,0c0.693,0,1.259,0.665,1.244,1.458
			C103.87,42.196,103.283,42.841,102.609,42.861z M112.014,41.078c0.254-0.319,0.422-0.511,0.422-0.511s1.495-2.314,1.559-3.019
			c0.06-0.732-0.528-0.732-0.528-0.732l-1.453-0.127l-1.283-0.127c-0.441-0.04-4.592-1.245-5.767-1.713
			c-0.759-0.299-1.599-0.429-2.355-0.469c-0.464,0-0.908,0-1.305,0.04c-1.161,0.084-2.738,1.393-2.738,1.393
			c-0.275,0.152-0.592-0.191-0.843-0.319l-5.367-3.841c-0.123-0.316,0.041-0.682,0.209-1.002c0.151-0.26,0.823-0.599,2.318-3.344
			c0.775-1.414,0.986-2.421,0.966-3.361c-0.022-0.537-0.209-1.183-0.759-1.931c-0.568-0.769-2.589-1.071-4.968-1.414
			c-1.174-0.171-2.461-0.346-3.742-0.452C85.392,20.041,84.42,20,83.516,20c-2.881,0-4.628,0.233-4.628,0.233s-0.591,0-1.496,0.238
			c-0.925,0.255-2.334,0.749-2.756,1.713c-0.127,0.191-0.254,0.43-0.36,0.662c-0.923,1.998-1.177,5.037-1.177,6.004
			c0,0.404-0.147,1.989-0.083,3.318c0.063,1.334,0.63,2.573,0.63,2.573s0.356,0.533,0.629,1.222
			c0.277,0.665,0.485,1.497,0.214,2.122c-0.55,1.262,1.03,0.168,0.84,0.319c-0.188,0.152,2.631-1.947,2.944-2.696
			c0.316-0.753-0.106-1.501-0.525-2.382c-0.421-0.856-0.293-3.212-0.211-3.986c0.064-0.748,0.105-1.628,1.894-2.358
			c1.767-0.748,3.891,1.18,4.317,1.931c0.419,0.752,0.63,3.338,0.63,3.338s0.188,1.485,0.188,3.257
			c-0.021,1.374-0.149,2.959-0.251,4.181c-0.233,2.808-1.583,4.716-1.514,5.075c0.043,0.37,0.335,0.219,0.628,0.11
			c0.064-0.019,0.631-0.769,1.115-1.76c0.486-0.984,0.864-2.118,0.97-2.784c0.273-1.608,0.294-4.369,0.232-6.34
			c-0.043-1.756,0.188-1.677,0.632-1.628c0.127,0.02,0.251,0.043,0.399,0c0.313-0.064,1.892,1.178,2.733,0.856
			c0.845-0.32,1.561-0.45,1.897-0.215l5.894,4.329c0.335,0.235-0.19,0.621-0.315,0.939c0,0-0.235,0.646-0.527,1.63
			c-0.294,1.008-0.338,1.203-0.169,2.294c0.188,1.116,1.64,2.035,4.483,2.465c0.569,0.088,1.2,0.064,1.834-0.044
			c2.376-0.386,4.777-1.863,4.964-2.011c0.255-0.171,0.336-0.195,0.736-0.215c0.296,0.275,0.36,0.642,0.524,0.968
			c0,0,0.109,0.252,0.57,0.275C109.741,43.655,111.259,41.963,112.014,41.078z"/>
		<path id="Fill-12" fill-rule="evenodd" clip-rule="evenodd" d="M77.418,10c0.647-0.085,1.063-0.148,1.584-0.317
			c0.209-0.085,0.355-0.125,0.606-0.42c0.022-1.054,0.061-2.128,0.105-3.182c0.041-0.634,0.148-1.308,0.249-1.943
			c0.253-0.463,0.337-0.572,0.961-0.908c0.9-0.503,1.796-0.824,2.863-1.181c0.916-0.271,1.77-0.505,2.714-0.714
			c0.227-0.043,0.479-0.088,0.706-0.151c1.671-0.103,2.026-0.08,3.238-0.103c0.792,0,0.919,0,1.461,0
			c1.565,0.103,2.419,0.235,3.964,0.447c0.127-0.193,0.166-0.318,0.104-0.552c-1.918-0.466-2.898-0.717-4.38-0.842
			c-1.588-0.106-2.983-0.173-4.697-0.106c-0.125,0.02-0.25,0.02-0.395,0.039c-0.627,0.067-1.255,0.11-1.903,0.173l-1.75,0.316
			c-0.564,0.143-1.129,0.291-1.672,0.42c-0.917,0.297-1.587,0.526-2.441,0.882c-0.523,0.274-0.712,0.364-1.108,0.846
			c-0.167,0.526-0.23,0.925-0.313,1.454C77.146,5.933,77,7.701,77,9.472C77.104,9.77,77.163,9.83,77.418,10"/>
		<path id="Fill-13" fill-rule="evenodd" clip-rule="evenodd" d="M75.199,57.889c-0.085-0.108-0.15-0.215-0.235-0.318
			c-0.699-0.902-1.252-1.694-1.952-2.59c-0.808-1.069-1.489-2.015-2.403-3.276c-0.894-1.175-1.615-2.074-2.399-3.338
			c-0.362-0.597-0.683-1.137-0.957-1.881c0.19-0.386,0.341-0.708,0.532-1.157c0.317-0.708,0.552-1.134,0.785-1.758
			c0.15-0.315,0.256-0.64,0.361-1.067c0-0.194,0.063-0.278-0.276-0.473c-0.361-0.103-0.53,0.085-0.701,0.319
			c-0.276,0.712-1.273,2.207-1.273,2.207c-0.66,0.836-1.275,1.329-1.656,1.778C65,46.333,65,46.353,65,46.374v0.879
			c0.191,0.49,0.361,0.788,0.723,1.396c0.999,1.385,1.593,2.156,2.55,3.337c0.998,1.11,1.636,1.775,2.655,2.865
			c1.212,1.325,2.358,2.481,3.613,3.679c0.147,0.131,0.275,0.282,0.423,0.41c1.192,1.134,2.187,2.073,3.4,3.039
			c0.214,0.043,0.427,0.043,0.636-0.219C77.644,60.479,76.453,59.235,75.199,57.889"/>
		<path id="Fill-14" fill-rule="evenodd" clip-rule="evenodd" d="M76.949,47.043c-0.76,0-1.292-0.095-2.054-0.187
			c-0.449-0.119-0.696-0.154-1.107-0.383c-0.513-0.414-1.026-0.926-1.026-1.134c0.208-0.355,0.329-0.622,0.184-0.966
			c-0.204-0.242-0.35-0.296-0.716-0.373c-0.492,0.021-0.575,0.151-0.819,0.284c-0.208,0.19-0.33,0.374-0.412,0.566
			c0,0.488,0.081,0.811,0.308,1.226c0.389,0.551,0.882,1.022,1.537,1.345c0.556,0.243,1.231,0.491,1.683,0.545
			c0.123,0.02,0.246,0.02,0.368,0.02c0.884,0.056,1.601-0.074,2.463-0.189c0.308-0.056,0.512-0.109,0.922-0.281
			c0.289-0.154,0.492-0.398,0.72-0.661c-0.391,0-0.616,0.092-0.925,0.092C77.563,47.025,77.4,47.043,76.949,47.043"/>
		<path id="Fill-15" fill-rule="evenodd" clip-rule="evenodd" d="M63.902,48c-2.265,1.389-4.554,2.722-6.84,4.159
			c-1.554,1.092-2.955,2.042-4.444,3.153c-0.582,0.499-1.143,0.947-1.553,1.512C51.022,56.863,51,56.884,51,56.904v0.044
			c0.022,0.116,0.388,0.016,0.584-0.104c0.927-0.545,1.724-0.95,2.89-1.532c1.897-1.033,3.687-1.963,5.609-3.055
			c1.595-0.826,3.236-1.653,4.917-2.479v-0.405c-0.085-0.221-0.216-0.406-0.366-0.646C64.42,48.423,64.289,48.3,63.902,48"/>
		<path id="Fill-16" fill-rule="evenodd" clip-rule="evenodd" d="M95.643,90.206v-2.6H105v5.363
			c-1.795,0.786-3.383,1.321-4.762,1.605C98.858,94.858,97.221,95,95.328,95c-2.331,0-4.231-0.254-5.7-0.762
			c-1.469-0.51-2.607-1.267-3.416-2.273C85.404,90.958,85,89.804,85,88.501c0-1.372,0.441-2.565,1.325-3.58
			c0.884-1.014,2.178-1.785,3.883-2.312C91.537,82.203,93.326,82,95.575,82c2.169,0,3.791,0.127,4.866,0.378
			c1.076,0.252,1.968,0.642,2.678,1.17c0.709,0.529,1.242,1.199,1.599,2.011l-5.863,0.667c-0.241-0.473-0.65-0.835-1.225-1.086
			c-0.576-0.251-1.309-0.377-2.202-0.377c-1.33,0-2.39,0.295-3.179,0.886c-0.79,0.59-1.185,1.526-1.185,2.804
			c0,1.358,0.401,2.329,1.204,2.911c0.802,0.583,1.921,0.874,3.356,0.874c0.681,0,1.331-0.063,1.949-0.19
			c0.618-0.127,1.327-0.343,2.125-0.649v-1.193H95.643"/>
		<path id="Fill-17" fill-rule="evenodd" clip-rule="evenodd" d="M114.255,88.529c0,1.262,0.38,2.169,1.142,2.72
			c0.762,0.551,1.799,0.827,3.11,0.827c1.349,0,2.392-0.27,3.131-0.81c0.739-0.54,1.108-1.509,1.108-2.906
			c0-1.177-0.386-2.036-1.157-2.579c-0.771-0.543-1.817-0.814-3.137-0.814c-1.266,0-2.281,0.276-3.048,0.827
			C114.637,86.344,114.255,87.256,114.255,88.529z M108,88.509c0-2.053,0.922-3.65,2.764-4.794c1.844-1.143,4.411-1.715,7.701-1.715
			c3.373,0,5.972,0.562,7.797,1.686c1.825,1.123,2.737,2.696,2.737,4.72c0,1.469-0.399,2.674-1.196,3.614
			c-0.797,0.941-1.95,1.672-3.457,2.195c-1.507,0.523-3.385,0.784-5.633,0.784c-2.286,0-4.177-0.225-5.675-0.677
			c-1.498-0.451-2.713-1.166-3.644-2.144C108.465,91.201,108,89.978,108,88.509z"/>
		<polyline id="Fill-18" fill-rule="evenodd" clip-rule="evenodd" points="133,82 139.243,82 139.243,91.813 149,91.813 149,95 
			133,95 133,82 		"/>
		<polyline id="Fill-19" fill-rule="evenodd" clip-rule="evenodd" points="153,82 168,82 168,84.81 159.097,84.81 159.097,87.074 
			166.717,87.074 166.717,89.716 159.097,89.716 159.097,95 153,95 153,82 		"/>
		<polyline id="Fill-20" fill-rule="evenodd" clip-rule="evenodd" points="0,65 6.243,65 6.243,74.813 16,74.813 16,78 0,78 0,65 		
			"/>
		<polyline id="Fill-21" fill-rule="evenodd" clip-rule="evenodd" points="19,65 35.712,65 35.712,67.768 25.231,67.768 
			25.231,69.865 34.928,69.865 34.928,72.507 25.231,72.507 25.231,75.066 36,75.066 36,78 19,78 19,65 		"/>
		<path id="Fill-22" fill-rule="evenodd" clip-rule="evenodd" d="M51.134,73.052l-2.196-4.679l-2.212,4.679H51.134z M52.456,75.862
			h-7.058L44.386,78H38l7.569-13h6.852L60,78h-6.535L52.456,75.862z"/>
		<path id="Fill-23" fill-rule="evenodd" clip-rule="evenodd" d="M69.04,67.936v7.13h1.48c1.261,0,2.159-0.093,2.693-0.281
			c0.533-0.187,0.95-0.513,1.253-0.979c0.302-0.465,0.454-1.221,0.454-2.265c0-1.382-0.338-2.329-1.014-2.839
			c-0.676-0.51-1.795-0.765-3.359-0.765H69.04z M63,65h8.98c1.77,0,3.2,0.16,4.29,0.479c1.09,0.32,1.991,0.777,2.702,1.375
			c0.712,0.597,1.227,1.291,1.548,2.083c0.32,0.792,0.48,1.631,0.48,2.518c0,1.39-0.238,2.468-0.714,3.233
			c-0.476,0.766-1.137,1.407-1.982,1.924c-0.845,0.518-1.752,0.862-2.722,1.033C74.257,77.883,73.056,78,71.98,78H63V65z"/>
		<path id="Fill-24" fill-rule="evenodd" clip-rule="evenodd" d="M91.053,75.191h3.087c1.042,0,1.777-0.123,2.205-0.369
			c0.428-0.246,0.641-0.577,0.641-0.992c0-0.385-0.211-0.695-0.635-0.93c-0.423-0.234-1.165-0.351-2.225-0.351h-3.074V75.191z
			 M91.053,70.074h2.622c0.941,0,1.594-0.106,1.963-0.319c0.369-0.213,0.553-0.521,0.553-0.923c0-0.374-0.184-0.666-0.553-0.875
			c-0.369-0.21-1.009-0.316-1.923-0.316h-2.662V70.074z M85,65h11.257c1.875,0,3.316,0.309,4.32,0.927
			c1.004,0.619,1.507,1.384,1.507,2.297c0,0.765-0.358,1.422-1.075,1.969c-0.478,0.365-1.177,0.654-2.097,0.866
			c1.403,0.225,2.435,0.613,3.096,1.162c0.661,0.55,0.992,1.238,0.992,2.069c0,0.677-0.235,1.285-0.704,1.825
			c-0.47,0.54-1.111,0.967-1.926,1.282c-0.505,0.196-1.267,0.339-2.285,0.428C96.73,77.942,95.831,78,95.388,78H85V65z"/>
		<polyline id="Fill-25" fill-rule="evenodd" clip-rule="evenodd" points="107,65 123.711,65 123.711,67.768 113.231,67.768 
			113.231,69.865 122.927,69.865 122.927,72.507 113.231,72.507 113.231,75.066 124,75.066 124,78 107,78 107,65 		"/>
		<polyline id="Fill-26" fill-rule="evenodd" clip-rule="evenodd" points="126,65 145,65 145,68.229 138.626,68.229 138.626,78 
			132.375,78 132.375,68.229 126,68.229 126,65 		"/>
		<polyline id="Fill-27" fill-rule="evenodd" clip-rule="evenodd" points="147,65 166,65 166,68.229 159.625,68.229 159.625,78 
			153.375,78 153.375,68.229 147,68.229 147,65 		"/>
		<polyline id="Fill-28" fill-rule="evenodd" clip-rule="evenodd" points="169,65 185.711,65 185.711,67.768 175.23,67.768 
			175.23,69.865 184.927,69.865 184.927,72.507 175.23,72.507 175.23,75.066 186,75.066 186,78 169,78 169,65 		"/>
		<path id="Fill-29" fill-rule="evenodd" clip-rule="evenodd" d="M197.004,70.242h2.503c0.271,0,0.795-0.058,1.573-0.174
			c0.393-0.052,0.714-0.186,0.963-0.401c0.249-0.215,0.374-0.463,0.374-0.742c0-0.413-0.197-0.729-0.59-0.951
			c-0.393-0.22-1.131-0.331-2.214-0.331h-2.607V70.242z M191,78V65h9.941c1.843,0,3.252,0.107,4.226,0.319
			c0.974,0.213,1.76,0.607,2.357,1.182c0.596,0.575,0.895,1.277,0.895,2.103c0,0.72-0.229,1.341-0.685,1.864
			c-0.457,0.523-1.085,0.946-1.884,1.27c-0.51,0.207-1.208,0.378-2.095,0.514c0.708,0.162,1.225,0.323,1.549,0.484
			c0.219,0.108,0.536,0.339,0.952,0.692c0.416,0.353,0.694,0.625,0.834,0.816L210,78h-6.745l-3.19-3.978
			c-0.403-0.516-0.763-0.849-1.078-1.004c-0.43-0.201-0.915-0.302-1.458-0.302h-0.526V78H191z"/>
		<path id="Fill-30" fill-rule="evenodd" clip-rule="evenodd" d="M88.374,102.701h4.003l-1.229-2.205
			c-0.369-0.676-0.649-1.233-0.841-1.671c-0.156,0.522-0.371,1.034-0.644,1.539L88.374,102.701z M85,106l4.489-8h1.708L96,106
			h-1.773l-1.353-2.433h-4.942L86.642,106H85z"/>
		<path id="Fill-31" fill-rule="evenodd" clip-rule="evenodd" d="M105.507,103.155l1.493,0.259
			c-0.314,0.841-0.878,1.483-1.694,1.924c-0.815,0.442-1.812,0.662-2.989,0.662c-1.22,0-2.211-0.17-2.975-0.509
			c-0.764-0.339-1.345-0.831-1.744-1.475c-0.399-0.644-0.598-1.335-0.598-2.074c0-0.806,0.225-1.508,0.676-2.108
			c0.45-0.6,1.091-1.055,1.923-1.366c0.831-0.312,1.747-0.467,2.746-0.467c1.133,0,2.085,0.197,2.858,0.591
			c0.772,0.394,1.31,0.949,1.614,1.663l-1.473,0.237c-0.262-0.563-0.643-0.972-1.141-1.229c-0.499-0.257-1.127-0.385-1.882-0.385
			c-0.87,0-1.596,0.142-2.18,0.427c-0.584,0.286-0.994,0.667-1.23,1.148c-0.237,0.48-0.355,0.975-0.355,1.484
			c0,0.658,0.14,1.232,0.42,1.722c0.28,0.491,0.716,0.857,1.307,1.099c0.591,0.243,1.23,0.364,1.92,0.364
			c0.838,0,1.546-0.165,2.127-0.496C104.908,104.296,105.301,103.806,105.507,103.155"/>
		<path id="Fill-32" fill-rule="evenodd" clip-rule="evenodd" d="M111.374,102.701h4.003l-1.229-2.205
			c-0.369-0.676-0.65-1.233-0.841-1.671c-0.156,0.522-0.371,1.034-0.645,1.539L111.374,102.701z M108,106l4.488-8h1.708l4.804,8
			h-1.774l-1.352-2.433h-4.941l-1.29,2.433H108z"/>
		<path id="Fill-33" fill-rule="evenodd" clip-rule="evenodd" d="M122.594,105.051h2.58c0.798,0,1.423-0.049,1.877-0.147
			c0.453-0.098,0.815-0.236,1.084-0.414c0.38-0.251,0.675-0.587,0.886-1.011c0.211-0.423,0.318-0.936,0.318-1.539
			c0-0.835-0.208-1.477-0.623-1.926c-0.415-0.448-0.92-0.75-1.513-0.902c-0.43-0.109-1.119-0.164-2.07-0.164h-2.54V105.051z
			 M121,106v-8h4.166c0.941,0,1.659,0.038,2.154,0.115c0.693,0.105,1.285,0.296,1.774,0.572c0.637,0.357,1.115,0.813,1.431,1.367
			c0.316,0.555,0.475,1.189,0.475,1.902c0,0.608-0.108,1.146-0.323,1.615c-0.214,0.469-0.489,0.858-0.825,1.166
			c-0.334,0.307-0.702,0.549-1.101,0.726c-0.398,0.176-0.88,0.31-1.444,0.401c-0.564,0.091-1.211,0.136-1.942,0.136H121z"/>
		<polyline id="Fill-34" fill-rule="evenodd" clip-rule="evenodd" points="133,106 133,98 141.715,98 141.715,98.948 
			134.595,98.948 134.595,101.382 141.257,101.382 141.257,102.33 134.595,102.33 134.595,105.051 142,105.051 142,106 133,106 		
			"/>
		<path id="Fill-35" fill-rule="evenodd" clip-rule="evenodd" d="M144,106v-8h2.279l2.74,5.664c0.253,0.528,0.437,0.923,0.554,1.185
			c0.132-0.291,0.339-0.719,0.619-1.283L152.981,98H155v8h-1.474v-6.701l-3.38,6.701h-1.342l-3.331-6.784V106H144"/>
		<path id="Fill-36" fill-rule="evenodd" clip-rule="evenodd" d="M161.633,106v-3.389L157,98h1.897l2.385,2.43
			c0.437,0.454,0.847,0.901,1.23,1.341c0.368-0.423,0.814-0.893,1.337-1.411L166.157,98H168l-4.786,4.611V106H161.633"/>
		<polyline id="Fill-37" fill-rule="evenodd" clip-rule="evenodd" points="172.251,101 172.251,98.354 171,98.354 171,98 174,98 
			174,98.354 172.749,98.354 172.749,101 172.251,101 		"/>
		<path id="Fill-38" fill-rule="evenodd" clip-rule="evenodd" d="M174,101v-3h0.831l0.991,2.124c0.091,0.198,0.159,0.346,0.2,0.445
			c0.048-0.109,0.123-0.27,0.226-0.481L177.267,98H178v3h-0.538v-2.516L176.231,101h-0.488l-1.205-2.542V101H174"/>
		<polyline id="Fill-39" fill-rule="evenodd" clip-rule="evenodd" points="88.325,62 88.325,54.944 85,54.944 85,54 93,54 
			93,54.944 89.661,54.944 89.661,62 88.325,62 		"/>
		<polyline id="Fill-40" fill-rule="evenodd" clip-rule="evenodd" points="95,62 95,54 96.35,54 96.35,57.285 101.651,57.285 
			101.651,54 103,54 103,62 101.651,62 101.651,58.23 96.35,58.23 96.35,62 95,62 		"/>
		<polyline id="Fill-41" fill-rule="evenodd" clip-rule="evenodd" points="106,62 106,54 113.751,54 113.751,54.944 107.419,54.944 
			107.419,57.394 113.349,57.394 113.349,58.333 107.419,58.333 107.419,61.056 114,61.056 114,62 106,62 		"/>
	</g>
</g>
</svg>
