<?xml version="1.0" encoding="UTF-8"?>
<svg width="249px" height="123px" viewBox="0 0 249 123" version="1.1" xmlns="http://www.w3.org/2000/svg" xmlns:xlink="http://www.w3.org/1999/xlink">
    <!-- Generator: Sketch 52.6 (67491) - http://www.bohemiancoding.com/sketch -->
    <title>Logo</title>
    <desc>Created with Sketch.</desc>
    <g id="Logo" stroke="none" stroke-width="1" fill="none" fill-rule="evenodd">
        <g id="David_Leadbetter_Golf-Academy-logo_black_background_CMYK" transform="translate(36.000000, 6.000000)">
            <path d="M64.4175,49.095 L64.4175,49.905 C64.4635,49.854 64.5395,49.822 64.5825,49.779 C64.5395,49.539 64.5015,49.29 64.4175,49.095" id="Fill-4" fill="#FFFFFE"></path>
            <path d="M64.6005634,48 L64.6005634,47 C64.3185634,47.3652803 64.3585634,47.6558168 64.5635634,48 L64.6005634,48" id="Fill-5" fill="#FFFFFE"></path>
            <path d="M115.686867,16.578442 C115.599857,15.82036 115.498779,15.3042733 115.474291,14.3133665 C115.537855,13.5756631 115.621219,12.8522247 115.686867,12.1359187 C115.599857,11.7237626 115.455534,11.578056 115.159074,11.311097 C114.403595,11.1006885 114.108177,11.0237595 113.370933,10.897922 C113.076557,10.8367864 112.803543,10.7746318 112.549806,10.7369315 C111.687518,10.5723747 111.056042,10.4460277 110.108307,10.2590546 C107.984108,9.99413345 106.23765,9.684889 103.710703,9.44034644 C103.518447,9.42098682 103.331921,9.42098682 103.144875,9.40060827 C100.720569,9.23350418 99.1022816,9.14995214 96.4685258,9.0271714 C94.9554839,9.0271714 93.7972566,8.96603576 91.9460728,9.0271714 C90.2610943,9.11072344 88.6615631,9.17185908 86.9177094,9.27273289 C86.5769624,9.29514929 86.2231899,9.31450891 85.8438873,9.33641585 C82.8756368,9.684889 80.0975585,10.0787044 77.234554,10.4689536 C77.0871053,10.7522154 76.9797752,10.9233952 77.0032211,11.311097 C77.0443817,11.5372989 77.1735947,11.8042579 77.4455671,12.0299503 C78.4761445,12.1129929 79.4014759,12.0941427 80.3914138,12.1359187 L83.0220434,12.342761 C84.8544705,12.461466 85.6089074,12.5883225 86.9177094,12.7294439 C86.9817949,12.7294439 87.0443173,12.7528792 87.1037135,12.7528792 C89.2315589,13.0397073 90.7654416,13.2847593 92.786999,13.6780653 L97.7319991,14.8335289 L103.144875,16.3130114 L105.603568,16.9946738 C107.835618,17.6304845 109.750887,18.267314 111.896447,18.9642604 C112.107981,19.0294717 112.338272,19.0946831 112.549806,19.1751783 C113.537139,19.4620064 114.485916,19.768194 115.474291,20 C115.812433,19.9551672 115.937478,19.9139006 116,19.5847871 C115.898401,18.596937 115.791071,17.588199 115.686867,16.578442" id="Fill-6" fill="#AE2534"></path>
            <path d="M123.999674,26.2929033 C123.282625,26.3148748 122.987247,26.2929033 122.205486,26.1886663 C121.954989,26.1886663 121.724322,26.1697605 121.509834,26.1278613 C121.004664,26.088006 120.586647,26.0006308 119.992237,25.8815758 C118.726703,25.6516412 118.473075,25.5703977 117.462213,25.2638182 C116.454483,24.9107408 115.441012,24.5607293 114.407711,24.2306454 C113.878013,24.0436319 113.35249,23.8591733 112.846799,23.6716488 C111.223784,23.0963013 109.602335,22.5132894 107.999152,21.9410077 C106.291595,21.3007676 104.920643,20.8219926 103.426531,20.2854786 C103.088359,20.1843073 102.770019,20.0810922 102.432891,19.9610153 C98.5961055,18.6994408 97.56176,18.366802 95.0552203,17.6034192 C91.8723376,16.6969659 90.7555367,16.4052044 88.3095339,15.8073744 C87.8654229,15.7266418 87.5084641,15.648975 87.1729019,15.5615999 C85.991911,15.335242 85.2748622,15.1931936 83.4838057,14.8830373 C81.8581819,14.5718592 80.973613,14.4875498 79.4758472,14.2800977 C77.8089957,14.156955 76.8826772,14.1186325 75.5774813,14.0537399 C75.3854333,14.0537399 75.2189569,14.0537399 75.0483056,14.0537399 C74.0155256,14.0537399 73.2149777,14.0123516 72.2270785,14.0123516 C71.6979027,13.9699415 71.3602531,14.0537399 70.8315992,14.0123516 C69.7153201,14.1186325 68.3255814,14.2576152 67.9446166,14.410394 C67.3543821,14.4451397 66.9128804,14.5907649 66.194266,14.8365394 C65.7308458,15.0439916 65.4782609,15.1931936 65.1620079,15.3940031 C65.0571121,15.4578738 64.9511726,15.5202117 64.825402,15.6034991 C64.3400633,15.9371597 64.0039793,16.1154868 63.5191624,16.5932398 C63.1611599,16.9468281 62.8433413,17.3770613 62.6126749,17.7904326 C62.4018396,18.2017601 62.2551942,18.531844 62.0845429,19.0300356 C62,19.5251615 62,19.8578002 62,20.2681057 C62.1064614,21.1127322 62.1899605,21.5235487 62.4018396,22.041157 C62.6126749,22.4330677 62.8235102,22.742713 63.0745295,23.0498034 C63.4142666,23.384486 63.7707035,23.7365415 64.1913304,23.9179343 C64.4246062,23.8755242 64.3609381,23.6527431 64.29727,23.4877011 C64.1709775,23.1576172 63.8562902,22.8888492 63.6861607,22.309925 C63.5593464,21.712095 63.6663296,21.3815002 63.8140187,20.8056417 C64.1913304,20.0810922 64.6145667,19.7540741 65.1620079,19.3207752 C65.1860139,19.2988036 65.225676,19.2523057 65.2481164,19.2369768 C66.0705829,18.6151314 66.786588,18.2017601 67.7760527,17.6867066 C69.0207117,17.2115084 69.6767018,16.9851506 71.2537917,16.739376 C72.4567011,16.6545557 73.4263348,16.5707573 74.838514,16.5293691 C74.9011383,16.5293691 74.9856812,16.5293691 75.0483056,16.5293691 C75.9970645,16.4895138 76.8628461,16.4895138 77.896148,16.5293691 C79.7091229,16.6545557 81.457908,16.8006919 83.3757787,17.0464665 C84.6830621,17.2539186 85.9266773,17.4613707 87.1729019,17.7071452 C88.541244,17.9554746 89.8887113,18.2441703 91.3650804,18.531844 C93.491699,19.0683581 94.9717212,19.398442 97.2449852,20.1235024 C99.2510519,20.7443258 100.978962,21.2777741 103.276754,22.041157 L103.426531,22.0805014 L107.892169,23.5919381 C109.514139,24.1693295 110.885613,24.5806569 112.615089,25.1560044 C112.697544,25.1984146 112.762778,25.221919 112.846799,25.2638182 C113.142699,25.3869609 113.312306,25.4441891 113.774683,25.7783607 C114.090936,26.4405724 114.155648,26.7262023 114.302293,27.4502408 C114.384748,27.9034674 114.470335,28.3592489 114.554878,28.8114536 C114.681692,28.9151797 114.766757,28.9381731 114.932711,29 C115.166509,28.56619 115.268274,28.3168387 115.460322,27.5539668 C115.545386,27.2622054 115.608533,26.9975251 115.671157,26.7062746 C115.969144,26.5437875 116.114746,26.5192611 116.408037,26.5018883 C116.874588,26.5826209 117.317134,26.6424039 117.780032,26.7062746 C118.559705,26.8508779 118.960501,26.9520491 119.888385,27.0394243 C120.564728,27.1201569 120.816269,27.1789179 121.509834,27.2238829 C121.53384,27.2432996 121.555759,27.2432996 121.57298,27.2432996 C122.689259,27.2851988 123.327506,27.3087033 124.314361,27.2432996 C124.946345,27.1789179 125.220327,27.1395736 125.812127,26.9745316 C125.919632,26.8089787 125.980691,26.6863469 126,26.5018883 C125.601813,26.3986732 125.409765,26.3731249 125.13735,26.3731249 C124.86389,26.3337805 124.569555,26.3337805 123.999674,26.2929033" id="Fill-7" fill="#FFFFFE"></path>
            <path d="M130.904836,22.2620136 C130.54939,21.5914463 130.362096,21.2597133 129.859195,20.6890717 C129.170035,20.0535038 128.981706,19.9921281 128.187516,19.4777898 C127.542333,19.1470713 127.228797,18.964466 126.516871,18.7620784 C125.825641,18.5561402 125.741825,18.4952718 125.053699,18.3517237 C123.883886,18.1645533 123.735395,18.1645533 122.963453,18.1457855 C122.418644,18.1067283 121.921434,18.0656421 121.436125,18.0235414 C120.348059,17.9814407 119.307075,17.9814407 117.885293,18.1457855 C117.466727,18.309623 117.300645,18.4313599 117.112316,18.6591093 C116.984522,19.6456852 116.942096,19.9921281 117.112316,20.608421 C117.260807,21.134933 117.40464,21.4235508 117.844937,21.6482568 C118.700179,21.7289075 118.887473,21.6715897 119.618025,21.5493456 C120.080052,21.4235508 120.309772,21.3814502 120.977202,21.3408712 C121.165531,21.3205817 121.309882,21.3205817 121.436125,21.3205817 C121.794157,21.3408712 122.018703,21.3814502 122.544886,21.4463765 C123.339594,21.5077522 123.650026,21.5914463 124.426625,21.7512259 C125.136998,21.8962957 125.281867,21.9764392 126.305777,22.3649827 C127.142393,22.7758446 127.2914,22.8149019 127.874496,23.5945251 C128.233563,24.291976 128.29565,24.4786392 128.400162,25.0523242 C128.438449,25.3378986 128.501053,25.5210111 128.6066,25.7654994 C128.688347,25.9942632 128.835802,26.0353494 129.130196,25.9749882 C129.546693,25.7244132 129.818322,25.2770302 130.174802,24.8474004 C130.404004,24.4370457 130.654937,24.06727 130.904836,23.5945251 C131.009348,23.1456204 131.052291,22.7378019 130.904836,22.2620136" id="Fill-8" fill="#FFFFFE"></path>
            <path d="M117.784252,38.0685003 C117.530819,37.8845733 117.292063,38.1095957 117.057221,38.2905156 C116.659947,38.8994292 116.281753,39.5248811 115.870291,40.1112423 C115.095313,41.349617 113.952905,42.6817093 113.103071,43.4715428 C113.019898,43.5572418 112.942596,43.6364256 112.883885,43.6975675 C112.34962,44.1611436 111.896082,44.4838929 111.381876,44.8893341 C111.124039,45.152946 110.925402,45.6390745 111.027167,45.8230015 C111.144588,45.9242365 111.460646,46.1021495 111.717504,45.9242365 C112.112332,45.6390745 112.488079,45.3564183 112.883885,45.0552191 C113.417661,44.6297314 113.971497,44.1791855 114.504294,43.7161105 C115.392779,42.8240397 115.908453,42.196082 116.44174,41.4433346 L117.449113,39.6040649 L117.944727,38.6959568 C118.063127,38.4899787 117.982889,38.1471829 117.784252,38.0685003" id="Fill-9" fill="#FFFFFE"></path>
            <path d="M110.141614,1.97446013 C111.100395,2.06231849 111.365825,2.10791587 112.079865,2.30921161 C112.11973,2.32978603 112.163127,2.35480898 112.200974,2.35480898 C112.446725,2.48882079 112.651096,2.55832898 113.098191,2.86916964 C113.587674,3.18557095 113.650752,3.23061226 113.954534,3.72384243 C114.257811,4.40057423 114.401629,4.75979259 114.424841,5.81520505 C114.505076,5.76905161 114.56563,6.04041161 114.624167,5.99481423 C114.686235,6.04041161 114.747294,5.76905161 114.788673,5.79351849 C114.892121,5.45543062 114.931986,5.31863849 114.954694,4.80149751 C115.057132,4.19927849 114.97286,3.7905703 114.831566,3.09326407 C114.644856,2.57945948 114.444017,2.26750669 114.136702,1.92830669 C114.076148,1.88270931 113.668918,1.54072898 112.977082,1.29772833 C112.651096,1.20653357 112.427045,1.14036177 112.200974,1.10143718 C111.792735,1.0091303 111.427894,0.984107344 110.651786,1.0091303 C109.774754,1.14036177 108.900245,1.27659784 108,1.41060964 C108.022203,1.61524177 108.065601,1.79095849 108.20639,1.97446013 C109.101589,1.97446013 109.511846,1.97446013 110.141614,1.97446013" id="Fill-10" fill="#FFFFFE"></path>
            <path d="M102.60898,42.8610011 C102.586576,42.8610011 102.586576,42.8610011 102.563129,42.8610011 C101.850872,42.8610011 101.279816,42.1958265 101.303784,41.4038762 C101.303784,40.610865 101.890471,39.9684994 102.60898,39.9462208 C102.60898,39.9462208 102.60898,39.9462208 102.626174,39.9462208 C103.319674,39.9462208 103.88552,40.610865 103.87041,41.4038762 C103.87041,42.1958265 103.282681,42.8408443 102.60898,42.8610011 Z M112.014212,41.0776542 C112.267957,40.7583279 112.436252,40.5668383 112.436252,40.5668383 C112.436252,40.5668383 113.931106,38.2530491 113.995715,37.5475609 C114.055634,36.8155505 113.467384,36.8155505 113.467384,36.8155505 L112.014212,36.6882444 L110.730899,36.5609382 C110.289581,36.5211551 106.139003,35.3154598 104.964066,34.8476097 C104.205436,34.5489707 103.365004,34.4184819 102.60898,34.3786987 C102.144737,34.3786987 101.700813,34.3786987 101.303784,34.4184819 C100.142393,34.5022918 98.5662571,35.8114233 98.5662571,35.8114233 C98.2916708,35.9631298 97.9738384,35.6199336 97.7237409,35.4926275 L92.3565426,31.6511645 C92.2330569,31.3350209 92.3977045,30.9695462 92.5659993,30.6491591 C92.7165789,30.3887119 93.3892372,30.0497593 94.8840913,27.305251 C95.6593938,25.8916223 95.8698926,24.883782 95.8500932,23.9438383 C95.8276886,23.4065003 95.6406364,22.760952 95.0914638,22.012498 C94.5235339,21.2438871 92.5024328,20.9410046 90.1233796,20.5983389 C88.9489631,20.427006 87.6625236,20.2524905 86.3812946,20.1458716 C85.391846,20.0413745 84.4195917,20 83.5161142,20 C80.6347816,20 78.8882669,20.2328642 78.8882669,20.2328642 C78.8882669,20.2328642 78.2968903,20.2328642 77.3918497,20.4710327 C76.4664886,20.725645 75.0581266,21.2200172 74.636087,22.1838308 C74.508954,22.3747901 74.3818211,22.6140195 74.2760507,22.8458228 C73.3527738,24.8434684 73.0990289,27.8829026 73.0990289,28.8493685 C73.0990289,29.2535655 72.9520966,30.838527 73.0161841,32.1678153 C73.0787085,33.5013472 73.6466384,34.7409908 73.6466384,34.7409908 C73.6466384,34.7409908 74.0030275,35.2740853 74.2760507,35.9631298 C74.5532422,36.627774 74.7611358,37.4605683 74.4901967,38.0854293 C73.939982,39.3478819 75.5197651,38.2530491 75.3301078,38.4042251 C75.1420135,38.5559316 77.9613427,36.4569715 78.2744857,35.7079871 C78.5902339,34.9552895 78.1687153,34.2068354 77.7498018,33.3257708 C77.3288043,32.4701674 77.4564582,30.1134124 77.538782,29.3400276 C77.6028695,28.5915735 77.6440314,27.7121002 79.4332712,26.9822117 C81.2001064,26.2337576 83.3243727,28.1619153 83.7500596,28.913552 C84.1689731,29.6657191 84.3805139,32.2516252 84.3805139,32.2516252 C84.3805139,32.2516252 84.5686082,33.7368636 84.5686082,35.5090712 C84.5472457,36.8834471 84.4195917,38.4684086 84.3179895,39.6900172 C84.0850862,42.4981786 82.7345592,44.405649 82.8038571,44.7652889 C82.8465821,45.1350071 83.1383626,44.9838311 83.4322273,44.8756209 C83.4957937,44.856525 84.0632026,44.10701 84.5472457,43.1156134 C85.0333728,42.131643 85.4116454,40.9975574 85.5174159,40.3318524 C85.790439,38.7235514 85.8118015,35.9631298 85.7492772,33.9920063 C85.7060311,32.2357119 85.9368503,32.3152783 86.3812946,32.3635485 C86.5079065,32.3831749 86.6319132,32.4065143 86.7798876,32.3635485 C87.0930306,32.2998954 88.6722926,33.5411304 89.5127247,33.2191519 C90.3578461,32.8992952 91.0732294,32.7688064 91.409819,33.0037923 L97.3037853,37.3332622 C97.6388119,37.5682481 97.113607,37.9544101 96.9885582,38.2726754 C96.9885582,38.2726754 96.7535707,38.9182237 96.4617902,39.9021941 C96.1674045,40.9100344 96.1241584,41.1052372 96.2924533,42.1958265 C96.4805475,43.3113466 97.9321555,44.2311335 100.775452,44.6607918 C101.344424,44.7483147 101.9754,44.7244448 102.60898,44.616765 C104.985428,44.2311335 107.385844,42.7533213 107.573417,42.6053279 C107.828725,42.4345255 107.909486,42.4106556 108.309642,42.3904988 C108.606112,42.6657984 108.669157,43.0328644 108.833805,43.3580255 C108.833805,43.3580255 108.943223,43.6099856 109.403819,43.6333251 C109.74093,43.6545428 111.258709,41.9634928 112.014212,41.0776542 Z" id="Fill-11" fill="#FFFFFE"></path>
            <path d="M77.4180412,10 C78.0655141,9.91491488 78.4809716,9.85175354 79.0018437,9.68314929 C79.2111227,9.59806417 79.3568428,9.55787059 79.6079776,9.26346565 C79.6296806,8.2095586 79.6694694,7.13529376 79.7128754,6.0813867 C79.7536977,5.44716329 79.8606626,4.77326829 79.9614265,4.13800089 C80.2141115,3.6749917 80.2983398,3.56589483 80.9220428,3.22973032 C81.8216839,2.72704954 82.7182247,2.40602288 83.7847723,2.04897859 C84.7009491,1.7780634 85.5546005,1.54420983 86.4986812,1.33489 C86.726046,1.29208645 86.9776975,1.24719491 87.2045455,1.18403357 C88.8756768,1.08067864 89.2306759,1.10364641 90.442427,1.08067864 C91.2345866,1.08067864 91.3617042,1.08067864 91.9032458,1.08067864 C93.467929,1.18403357 94.3226139,1.3155762 95.8671443,1.527506 C95.9942619,1.33489 96.0330173,1.2096113 95.9710087,0.975235739 C94.0528766,0.509616575 93.073141,0.258015189 91.5906192,0.13273649 C90.0026828,0.0267715906 88.6074897,-0.0400437154 86.8939859,0.0267715906 C86.7689352,0.0466073846 86.6444013,0.0466073846 86.4986812,0.065921184 C85.8718778,0.13273649 85.2435241,0.17606204 84.5960512,0.238701389 L82.845859,0.555030104 C82.2815809,0.698056618 81.7167861,0.846303078 81.174211,0.975235739 C80.2570007,1.27225065 79.5867913,1.50088428 78.7336566,1.85740658 C78.2107176,2.13145373 78.0221081,2.2212368 77.6257699,2.70355979 C77.4583468,3.22973032 77.3958214,3.62853418 77.3131433,4.15731469 C77.1462369,5.93261825 77,7.70061388 77,9.47226348 C77.1043811,9.76980039 77.1627725,9.82982977 77.4180412,10" id="Fill-12" fill="#FFFFFE"></path>
            <path d="M75.198888,57.8893143 C75.1136825,57.7812301 75.0484634,57.6742055 74.9637839,57.5708897 C74.2647832,56.6691283 73.7119994,55.8770406 73.0114208,54.9805774 C72.2035465,53.9113915 71.5224284,52.9651248 70.6088361,51.7041424 C69.7152303,50.5295213 68.9936133,49.6304091 68.2094072,48.3657178 C67.8475468,47.7691354 67.5267112,47.2287143 67.2526862,46.4843108 C67.4430836,46.0980687 67.5940341,45.7759354 67.7844316,45.327174 C68.1015854,44.6187986 68.3366895,44.1928196 68.5696897,43.5692161 C68.7201142,43.2539705 68.8258321,42.929188 68.9304982,42.5021494 C68.9304982,42.3077038 68.9936133,42.2239915 68.6543692,42.0290161 C68.2930348,41.9257003 68.1247276,42.113788 67.9532647,42.3485003 C67.6771358,43.0600547 66.6799158,44.5552196 66.6799158,44.5552196 C66.0198362,45.3912828 65.4044631,45.8840196 65.0241942,46.332781 C65,46.332781 65,46.3529143 65,46.3735775 L65,47.2525564 C65.1914494,47.7421143 65.3608085,48.0409354 65.7231948,48.6481143 C66.7219926,50.0336055 67.3158013,50.8039705 68.2730483,51.9854792 C69.2713202,53.0954617 69.9087835,53.7609213 70.9280938,54.8507704 C72.1399053,56.1758617 73.2859719,57.3319388 74.5409122,58.5298722 C74.6881809,58.6607388 74.8154632,58.8117388 74.9637839,58.9394265 C76.1561349,60.0732511 77.151251,61.01263 78.3635885,61.9785002 C78.5776542,62.0219458 78.790668,62.0219458 79,61.7596827 C77.6435495,60.4790967 76.4527763,59.2350687 75.198888,57.8893143" id="Fill-13" fill="#FFFFFE"></path>
            <path d="M76.949486,47.042515 C76.1894911,47.042515 75.6574438,46.9475533 74.8954182,46.8558662 C74.4461226,46.7365794 74.1998985,46.7014951 73.7886788,46.4732129 C73.2759233,46.0592175 72.7631679,45.546986 72.7631679,45.3392866 C72.9708085,44.984233 73.0926514,44.7171241 72.9474553,44.3732975 C72.7438761,44.1309816 72.5976647,44.0776534 72.2311207,44 C71.7391801,44.0210506 71.6559208,44.1510966 71.4117274,44.2844171 C71.2040868,44.4743404 71.0812286,44.6581824 71,44.8509125 C71,45.3392866 71.0812286,45.6620627 71.3076533,46.0765258 C71.6970428,46.627584 72.1894911,47.0986499 72.8449042,47.421426 C73.40132,47.6646775 74.0760249,47.9126069 74.5278589,47.9664029 C74.6512248,47.9865179 74.7735753,47.9865179 74.8954182,47.9865179 C75.7792867,48.0426529 76.4966366,47.9126069 77.3581673,47.7970624 C77.6658205,47.7413952 77.8699073,47.6875992 78.2801117,47.5163876 C78.5689808,47.3624842 78.77256,47.1187649 79,46.8558662 C78.6085798,46.8558662 78.3836781,46.9475533 78.0745018,46.9475533 C77.5627618,47.0252067 77.3997969,47.042515 76.949486,47.042515" id="Fill-14" fill="#FFFFFE"></path>
            <path d="M63.9020446,48 C61.6367104,49.3888963 59.3484132,50.7217968 57.0622521,52.1591895 C55.5082392,53.251108 54.1069576,54.2010371 52.6180958,55.3124541 C52.0365426,55.8114169 51.4747482,56.2593834 51.0651511,56.8243412 C51.021895,56.8628384 51,56.8843368 51,56.9043353 L51,56.948332 C51.021895,57.0648233 51.3882362,56.9643308 51.5842234,56.8443397 C52.5112908,56.2993804 53.3085902,55.8944107 54.4743668,55.3124541 C56.3717577,54.2795312 58.1618096,53.3491007 60.0832316,52.2576821 C61.6783644,51.4312438 63.3188892,50.6043056 65,49.7788672 L65,49.3738974 C64.914556,49.152414 64.7842539,48.9679277 64.6336588,48.7279457 C64.4195148,48.4234684 64.2892127,48.2999776 63.9020446,48" id="Fill-15" fill="#FFFFFE"></path>
            <path d="M95.6425765,90.2063154 L95.6425765,87.6063154 L105,87.6063154 L105,92.9689461 C103.204611,93.7554304 101.617039,94.2903862 100.2378,94.5743363 C98.8580438,94.8577635 97.2213606,95 95.3282672,95 C92.9967949,95 91.096981,94.7463797 89.6277916,94.2375704 C88.1591191,93.7277152 87.0207816,92.9705149 86.2122622,91.9644006 C85.4042597,90.9582864 85,89.8041834 85,88.5005229 C85,87.1288817 85.4414806,85.9350362 86.3249586,84.9205551 C87.2089537,83.906074 88.502895,83.1352776 90.2078164,82.6086887 C91.5369107,82.2034191 93.3260959,82 95.5753722,82 C97.7440033,82 99.3662117,82.1265487 100.441481,82.3775543 C101.517266,82.6290829 102.409533,83.0197104 103.119313,83.5473451 C103.82806,84.0765487 104.361559,84.74642 104.718259,85.5580048 L98.8554591,86.2252615 C98.6145575,85.7525342 98.2056452,85.3901448 97.630273,85.1391392 C97.0543838,84.8881335 96.320823,84.7626307 95.4285567,84.7626307 C94.0984285,84.7626307 93.0386683,85.0580853 92.2492763,85.6489944 C91.4588503,86.2393805 91.0638958,87.1748994 91.0638958,88.4534594 C91.0638958,89.8115044 91.4650538,90.7820595 92.2678867,91.3640788 C93.0702026,91.9466211 94.1888958,92.2378922 95.6239661,92.2378922 C96.3053143,92.2378922 96.9546112,92.1746179 97.5734078,92.0480692 C98.1916873,91.9209976 98.9004342,91.7050282 99.6986146,91.399115 L99.6986146,90.2063154 L95.6425765,90.2063154" id="Fill-16" fill="#FFFFFE"></path>
            <path d="M114.254627,88.5287611 C114.254627,89.7905873 114.634778,90.6973451 115.396679,91.2485117 C116.15858,91.7996782 117.195598,92.0752615 118.506665,92.0752615 C119.855587,92.0752615 120.898469,91.8054304 121.637444,91.2652454 C122.376419,90.7255833 122.745906,89.756074 122.745906,88.3588093 C122.745906,87.1822204 122.35989,86.3230491 121.588925,85.7802494 C120.81796,85.2369268 119.771879,84.9660499 118.451748,84.9660499 C117.186,84.9660499 116.17031,85.2416331 115.404143,85.7927997 C114.637444,86.3439662 114.254627,87.2559533 114.254627,88.5287611 Z M108,88.5094127 C108,86.4563958 108.921852,84.8593725 110.764491,83.7152051 C112.608196,82.5720837 115.175413,82 118.46561,82 C121.838982,82 124.437657,82.5616251 126.262701,83.6859212 C128.087745,84.8091714 129,86.38214 129,88.4058729 C129,89.8753017 128.601188,91.0801287 127.804098,92.020354 C127.007007,92.9611022 125.853759,93.6921561 124.347551,94.2156074 C122.84081,94.7385358 120.96245,95 118.714601,95 C116.428365,95 114.537208,94.7746179 113.039531,94.3228077 C111.541854,93.8715205 110.326224,93.1566774 109.395841,92.1788013 C108.465458,91.2014481 108,89.9777957 108,88.5094127 Z" id="Fill-17" fill="#FFFFFE"></path>
            <polyline id="Fill-18" fill="#FFFFFE" points="133 82 139.243007 82 139.243007 91.8134291 149 91.8134291 149 95 133 95 133 82"></polyline>
            <polyline id="Fill-19" fill="#FFFFFE" points="153 82 168 82 168 84.8097749 159.096541 84.8097749 159.096541 87.0743294 166.716572 87.0743294 166.716572 89.7162196 159.096541 89.7162196 159.096541 95 153 95 153 82"></polyline>
            <polyline id="Fill-20" fill="#FFFFFE" points="0 65 6.24321448 65 6.24321448 74.8134291 16 74.8134291 16 78 0 78 0 65"></polyline>
            <polyline id="Fill-21" fill="#FFFFFE" points="19 65 35.7115853 65 35.7115853 67.7682086 25.2309255 67.7682086 25.2309255 69.8648783 34.9276073 69.8648783 34.9276073 72.5073084 25.2309255 72.5073084 25.2309255 75.0655261 36 75.0655261 36 78 19 78 19 65"></polyline>
            <path d="M51.1343125,73.051989 L48.9385177,68.3733494 L46.7262213,73.051989 L51.1343125,73.051989 Z M52.4555155,75.861764 L45.3975659,75.861764 L44.3861695,78 L38,78 L45.5689709,65 L52.4209151,65 L60,78 L53.4647826,78 L52.4555155,75.861764 Z" id="Fill-22" fill="#FFFFFE"></path>
            <path d="M69.0401613,67.9355535 L69.0401613,75.0655261 L70.5204668,75.0655261 C71.7819446,75.0655261 72.6799108,74.9721369 73.2133356,74.7848185 C73.7467605,74.59804 74.1638205,74.2719874 74.4665751,73.8055809 C74.7688149,73.3402541 74.9201922,72.5850428 74.9201922,71.5404867 C74.9201922,70.1580018 74.5824251,69.2116934 73.906376,68.7010215 C73.2308418,68.1914293 72.1109586,67.9355535 70.5472411,67.9355535 L69.0401613,67.9355535 Z M63,65 L71.9801768,65 C73.7503647,65 75.1796962,65.1603272 76.269716,65.4793622 C77.3597357,65.798937 78.2602763,66.2567063 78.9718527,66.8542895 C79.6834292,67.4507931 80.1993478,68.1455444 80.5196087,68.9374637 C80.8393547,69.7299228 81,70.5688066 81,71.4557346 C81,72.8457769 80.7621213,73.923802 80.286364,74.6887302 C79.8100918,75.454738 79.1494894,76.095507 78.3045568,76.6126568 C77.4596241,77.1303463 76.5523899,77.4747529 75.5828542,77.6458766 C74.2570154,77.8828586 73.0562945,78 71.9801768,78 L63,78 L63,65 Z" id="Fill-23" fill="#FFFFFE"></path>
            <path d="M91.0529703,75.1907649 L94.1399442,75.1907649 C95.1820926,75.1907649 95.917184,75.0682252 96.3452184,74.8220663 C96.7727402,74.5759073 96.9865011,74.2449963 96.9865011,73.8298729 C96.9865011,73.4444398 96.7753033,73.1351217 96.3518824,72.900299 C95.9289742,72.6665559 95.1872188,72.5488747 94.1271288,72.5488747 L91.0529703,72.5488747 L91.0529703,75.1907649 Z M91.0529703,70.0743294 L93.6750014,70.0743294 C94.6156519,70.0743294 95.2692373,69.9679844 95.6378083,69.7552944 C96.0063792,69.5420646 96.1904084,69.2343659 96.1904084,68.8321983 C96.1904084,68.4586413 96.0063792,68.1665975 95.6378083,67.9576862 C95.2692373,67.7476954 94.6284673,67.6418902 93.7149855,67.6418902 L91.0529703,67.6418902 L91.0529703,70.0743294 Z M85,65 L96.2570485,65 C98.132198,65 99.5726491,65.3093182 100.576864,65.9268748 C101.581079,66.546051 102.083955,67.3109792 102.083955,68.2238186 C102.083955,68.9892866 101.725636,69.6457105 101.008487,70.1930903 C100.530728,70.55855 99.8315202,70.846815 98.9113744,71.0589652 C100.313892,71.2840711 101.346301,71.6716635 102.007575,72.2206627 C102.66885,72.7702018 103,73.459015 103,74.2892617 C103,74.9667386 102.764709,75.5740387 102.295666,76.113861 C101.826109,76.6542231 101.184827,77.0812225 100.369767,77.3953991 C99.8648402,77.5913545 99.1030928,77.7344074 98.0850373,77.8229383 C96.7296805,77.9416992 95.8305519,78 95.3881643,78 L85,78 L85,65 Z" id="Fill-24" fill="#FFFFFE"></path>
            <polyline id="Fill-25" fill="#FFFFFE" points="107 65 123.711063 65 123.711063 67.7682086 113.230731 67.7682086 113.230731 69.8648783 122.92711 69.8648783 122.92711 72.5073084 113.230731 72.5073084 113.230731 75.0655261 124 75.0655261 124 78 107 78 107 65"></polyline>
            <polyline id="Fill-26" fill="#FFFFFE" points="126 65 145 65 145 68.2292168 138.625638 68.2292168 138.625638 78 132.374895 78 132.374895 68.2292168 126 68.2292168 126 65"></polyline>
            <polyline id="Fill-27" fill="#FFFFFE" points="147 65 166 65 166 68.2292168 159.625105 68.2292168 159.625105 78 153.374895 78 153.374895 68.2292168 147 68.2292168 147 65"></polyline>
            <polyline id="Fill-28" fill="#FFFFFE" points="169 65 185.711063 65 185.711063 67.7682086 175.2302 67.7682086 175.2302 69.8648783 184.926579 69.8648783 184.926579 72.5073084 175.2302 72.5073084 175.2302 75.0655261 186 75.0655261 186 78 169 78 169 65"></polyline>
            <path d="M197.004014,70.2422141 L199.506704,70.2422141 C199.77721,70.2422141 200.301442,70.1844531 201.079402,70.0678515 C201.47194,70.0154887 201.793294,69.8821526 202.041935,69.6667636 C202.291086,69.4519143 202.415661,69.2041359 202.415661,68.9245079 C202.415661,68.5115439 202.218375,68.195208 201.825327,67.9733411 C201.43228,67.7530936 200.69449,67.6418902 199.611449,67.6418902 L197.004014,67.6418902 L197.004014,70.2422141 Z M191,78 L191,65 L200.941098,65 C202.783793,65 204.193272,65.1068848 205.167501,65.319035 C206.141221,65.5317249 206.927316,65.9257952 207.524259,66.5012457 C208.120695,67.0766963 208.419675,67.7779254 208.419675,68.6038535 C208.419675,69.3239764 208.190864,69.9453119 207.734766,70.4678598 C207.277651,70.9904078 206.649691,71.4136284 205.850376,71.7380616 C205.340381,71.9453534 204.642251,72.1159372 203.755479,72.2519724 C204.463778,72.4139191 204.980892,72.575326 205.304788,72.736193 C205.52343,72.8441575 205.840715,73.0752014 206.257152,73.4277053 C206.673081,73.7807491 206.950705,74.0528195 207.091043,74.2439166 L210,78 L203.255145,78 L200.065512,74.0220497 C199.662296,73.5065194 199.302807,73.1729092 198.987556,73.0185201 C198.557899,72.8177062 198.07231,72.7167594 197.529772,72.7167594 L197.004014,72.7167594 L197.004014,78 L191,78 Z" id="Fill-29" fill="#FFFFFE"></path>
            <path d="M88.3739252,102.701026 L92.3766633,102.701026 L91.1475717,100.495897 C90.7787385,99.82 90.4981506,99.2630769 90.3068646,98.8246154 C90.1509824,99.3461538 89.9359178,99.8589744 89.6627276,100.364103 L88.3739252,102.701026 Z M85,106 L89.4888793,98 L91.1972426,98 L96,106 L94.2266417,106 L92.8739011,103.567179 L87.9321708,103.567179 L86.6417832,106 L85,106 Z" id="Fill-30" fill="#FFFFFE"></path>
            <path d="M105.506688,103.154872 L107,103.413385 C106.686181,104.254419 106.121611,104.895987 105.305783,105.337592 C104.490463,105.779197 103.494075,106 102.316617,106 C101.096943,106 100.105132,105.830305 99.3416917,105.490914 C98.5777427,105.152019 97.9968974,104.659803 97.5976298,104.015754 C97.1988709,103.372201 97,102.681015 97,101.942194 C97,101.136389 97.2248105,100.43379 97.6759575,99.8339019 C98.1260872,99.2340135 98.7674584,98.7785152 99.5985453,98.4674068 C100.429632,98.1558023 101.345659,98 102.344082,98 C103.47729,98 104.429429,98.1974819 105.202024,98.5914532 C105.973603,98.9859207 106.511724,99.5406562 106.815879,100.254667 L105.342912,100.491844 C105.080972,99.9291695 104.700015,99.5198164 104.201567,99.2627923 C103.702101,99.0062643 103.074971,98.8782485 102.31916,98.8782485 C101.449418,98.8782485 100.723107,99.0201575 100.13921,99.3049681 C99.5553125,99.5907709 99.1453639,99.9723377 98.9088551,100.452645 C98.6723463,100.932457 98.5538375,101.427154 98.5538375,101.936736 C98.5538375,102.594678 98.694217,103.168765 98.9739586,103.658996 C99.2542088,104.149724 99.6895885,104.515909 100.280606,104.758048 C100.871624,105.001178 101.510961,105.122248 102.200142,105.122248 C103.037841,105.122248 103.746351,104.957018 104.327196,104.626558 C104.908041,104.296099 105.301205,103.805867 105.506688,103.154872" id="Fill-31" fill="#FFFFFE"></path>
            <path d="M111.373763,102.701026 L115.376309,102.701026 L114.147805,100.495897 C113.778989,99.82 113.497886,99.2630769 113.307138,98.8246154 C113.150735,99.3461538 112.936209,99.8589744 112.662504,100.364103 L111.373763,102.701026 Z M108,106 L112.488135,98 L114.196417,98 L119,106 L117.22567,106 L115.873523,103.567179 L110.93203,103.567179 L109.641704,106 L108,106 Z" id="Fill-32" fill="#FFFFFE"></path>
            <path d="M122.594266,105.051282 L125.174631,105.051282 C125.97285,105.051282 126.59785,105.002564 127.051803,104.904615 C127.50467,104.806667 127.866312,104.668718 128.136186,104.490256 C128.515747,104.239487 128.811142,103.903077 129.022372,103.479487 C129.233601,103.05641 129.34003,102.543077 129.34003,101.94 C129.34003,101.105128 129.132059,100.462564 128.717202,100.013846 C128.302346,99.565641 127.79735,99.2641026 127.204387,99.1117949 C126.774327,99.0030769 126.085252,98.9482051 125.134448,98.9482051 L122.594266,98.9482051 L122.594266,105.051282 Z M121,106 L121,98 L125.165943,98 C126.106972,98 126.824826,98.0379487 127.319505,98.1148718 C128.012924,98.22 128.604257,98.4107692 129.093506,98.6871795 C129.730995,99.0441026 130.208297,99.5 130.52487,100.054359 C130.840899,100.609231 131,101.24359 131,101.95641 C131,102.564103 130.891942,103.102564 130.677454,103.571282 C130.462967,104.040513 130.188206,104.429231 129.852085,104.736923 C129.517593,105.044103 129.149978,105.286154 128.750869,105.462564 C128.352845,105.638974 127.870656,105.772821 127.307016,105.86359 C126.743375,105.954359 126.096112,106 125.364683,106 L121,106 Z" id="Fill-33" fill="#FFFFFE"></path>
            <polyline id="Fill-34" fill="#FFFFFE" points="133 106 133 98 141.715321 98 141.715321 98.9482051 134.594531 98.9482051 134.594531 101.381538 141.256791 101.381538 141.256791 102.329744 134.594531 102.329744 134.594531 105.051282 142 105.051282 142 106 133 106"></polyline>
            <path d="M144,106 L144,98 L146.279084,98 L149.019147,103.66359 C149.272608,104.191795 149.45638,104.586154 149.573044,104.848205 C149.704679,104.556923 149.911681,104.129231 150.192501,103.565641 L152.980572,98 L155,98 L155,106 L153.52621,106 L153.52621,99.2989744 L150.146042,106 L148.803886,106 L145.473274,99.2164103 L145.473274,106 L144,106" id="Fill-35" fill="#FFFFFE"></path>
            <path d="M161.633195,106 L161.633195,102.611282 L157,98 L158.896793,98 L161.281518,100.429744 C161.718286,100.88359 162.128666,101.330256 162.511579,101.770769 C162.879951,101.348205 163.325875,100.877949 163.848813,100.359487 L166.156524,98 L168,98 L163.214394,102.611282 L163.214394,106 L161.633195,106" id="Fill-36" fill="#FFFFFE"></path>
            <polyline id="Fill-37" fill="#FFFFFE" points="172.25093 101 172.25093 98.35375 171 98.35375 171 98 174 98 174 98.35375 172.74907 98.35375 172.74907 101 172.25093 101"></polyline>
            <path d="M174,101 L174,98 L174.830995,98 L175.822311,100.124375 C175.913694,100.3225 175.981029,100.470625 176.022712,100.569375 C176.070808,100.46 176.146159,100.299375 176.248764,100.088125 L177.2668,98 L178,98 L178,101 L177.462391,101 L177.462391,98.48375 L176.231129,101 L175.742685,101 L174.538143,98.458125 L174.538143,101 L174,101" id="Fill-38" fill="#FFFFFE"></path>
            <polyline id="Fill-39" fill="#FFFFFE" points="88.3253665 62 88.3253665 54.9436647 85 54.9436647 85 54 93 54 93 54.9436647 89.6608353 54.9436647 89.6608353 62 88.3253665 62"></polyline>
            <polyline id="Fill-40" fill="#FFFFFE" points="95 62 95 54 96.3498475 54 96.3498475 57.2848097 101.65065 57.2848097 101.65065 54 103 54 103 62 101.65065 62 101.65065 58.2295189 96.3498475 58.2295189 96.3498475 62 95 62"></polyline>
            <polyline id="Fill-41" fill="#FFFFFE" points="106 62 106 54 113.750867 54 113.750867 54.9436647 107.418907 54.9436647 107.418907 57.3939552 113.348904 57.3939552 113.348904 58.3329199 107.418907 58.3329199 107.418907 61.055813 114 61.055813 114 62 106 62"></polyline>
        </g>
    </g>
</svg>