<?xml version="1.0" encoding="utf-8"?>
<!-- Generator: Adobe Illustrator 23.0.4, SVG Export Plug-In . SVG Version: 6.00 Build 0)  -->
<svg version="1.1" id="Layer_1" xmlns="http://www.w3.org/2000/svg" xmlns:xlink="http://www.w3.org/1999/xlink" x="0px" y="0px"
	 width="192.445px" height="54.807px" viewBox="0 0 192.445 54.807" enable-background="new 0 0 192.445 54.807"
	 xml:space="preserve">
<g>
	<path d="M42.152,6.3l1.412-0.076c0.093-0.01,0.161-0.09,0.15-0.182c-0.078-0.686-0.173-3.048,0.638-4.176
		c1.145-1.593,10.243-0.424,10.38-0.65c1.024-0.561-7.484-1.585-9.725-1.079c-2.952,0.667-3.107,2.746-3.018,6.018
		C41.992,6.24,42.067,6.309,42.152,6.3z"/>
	<path d="M41.948,8.12c0.001,0.124,0.082,0.233,0.205,0.251c2.595,0.39,15.491,1.317,25.012,5.772c0.918,0.43,2.554,0.705,2.57,0.27
		c0.037-0.949-0.431-3.668-0.321-4.233c0.112-0.572,0.581-1.596-0.003-2.158c-0.403-0.387-2.912-1.295-11.127-1.36
		C48.179,6.583,43.312,6.94,42.255,7.08c-0.136,0.018-0.212,0.128-0.241,0.262C41.973,7.529,41.947,7.821,41.948,8.12z"/>
	<path d="M71.152,17.866c-0.723-0.211-8.023-2.952-11.925-4.201c-3.45-1.104-18.95-4.67-25.5-3.984
		c-0.194,0.02-3.061,0.156-3.284,2.125c-0.268,2.367,1.67,4.952,2.069,5.036c0.324,0.068,0.309-0.199,0.286-1.223
		c-0.069-3.025,1.695-4.055,10.07-3.436c6.666,0.452,14.058,2.394,17.94,3.689c0.817,0.272,6.929,2.423,7.839,2.773
		c0.248,0.095,0.453,0.301,0.514,0.49c0.209,0.646,0.012,1.693-0.025,1.938c-0.073,0.477,1.018-1.964,1.018-1.964
		s9.386,3.244,11.056-0.284c1.812-3.828-9.022-5.208-8.328-5.09c2.876,0.488,8.493,2.399,6.764,4.387
		C78.422,19.529,75.014,18.993,71.152,17.866z"/>
	<path d="M69.481,1.57c-0.745-0.484-2.161-0.39-3.027-0.345c-0.163,0.009-0.323,0.017-0.48,0.021
		c-0.035,0.001-0.989,0.062-1.012,0.063c-0.195,0.014-0.363,0.194-0.354,0.378c0.006,0.118,0.099,0.253,0.336,0.253
		c0.008,0,0.016,0,0.023,0c0.215-0.008,0.439-0.023,0.667-0.039C66.69,1.832,68.3,1.712,68.94,2.292
		c0.708,0.642,0.765,1.413,0.803,1.923c0.02,0.274,0.034,0.456,0.151,0.543c0.029,0.021,0.072,0.042,0.133,0.042
		c0.019,0,0.04-0.002,0.062-0.007c0.337-0.076,0.361-1.278,0.361-1.29C70.464,2.672,70.12,1.985,69.481,1.57z"/>
	<g>
		<path d="M68.746,27.075c-0.249-0.521-1.188-0.319-1.634-0.351c-0.684-0.048-1.324-0.222-1.982-0.406
			c-0.844-0.235-1.696-0.472-2.522-0.767c-0.87-0.311-1.641-0.729-2.587-0.628c-0.868,0.093-1.274,0.694-2.002,1.037
			c-0.517,0.243-0.825-0.091-1.28-0.411c-0.597-0.42-1.195-0.84-1.792-1.26c-0.401-0.282-1.166-0.62-1.454-1.022
			c-0.251-0.351-0.153-0.493,0.076-0.791c0.581-0.756,1.203-1.382,1.671-2.245c0.501-0.924,1.797-2.452,1.385-3.496
			c-0.383-0.97-1.102-1.291-1.762-1.489c-1.327-0.4-11.505-2.734-13.235-1.492c-0.614,0.44-0.949,2.428-1.294,3.417
			c-0.381,1.093-0.758,2.519-0.847,3.667c-0.157,2.033,0.116,2.438,0.42,3.43c0.293,0.956,1.313,1.886,1.037,2.859
			c-0.162,0.57-0.349,1.353,0.503,0.797c0.649-0.423,1.528-1.029,1.956-1.68c0.349-0.531,0.134-1.014-0.101-1.544
			c-0.304-0.687-0.505-1.356-0.581-2.111c-0.138-1.375,0.699-2.709,2.198-2.71c1.436,0,2.454,1.397,3.178,2.47
			c0.719,1.066,1.514,2.138,2.943,2.049c0.974-0.06,1.381-0.486,2.202,0.106c1.234,0.891,2.469,1.781,3.703,2.672
			c-0.815,0.866-1.42,1.83-0.948,3.076c0.357,0.942,1.139,1.426,2.058,1.71c1.267,0.391,2.472,0.399,3.729-0.021
			c0.862-0.288,1.648-0.946,2.489-1.198c0.737-0.221,0.4,0.516,0.961,0.753C65.853,31.758,69.161,27.94,68.746,27.075z"/>
		<path d="M70.005,27.202c-0.626-0.334-0.422,1.977-3.48,4.52c-0.141,0.118-0.397,0.573-0.174,0.675
			C67.984,32.569,70.893,27.473,70.005,27.202z"/>
		<circle fill="#606161" cx="60.644" cy="30.073" r="0.769"/>
	</g>
</g>
<g>
	<path d="M37.428,38.053c-0.802-0.892-1.796-1.596-2.982-2.111c-1.187-0.515-2.489-0.772-3.908-0.772
		c-1.419,0-2.794,0.258-4.125,0.772c-1.332,0.515-2.523,1.219-3.575,2.111c-1.052,0.893-1.932,1.934-2.636,3.124
		c-0.705,1.19-1.153,2.461-1.342,3.811c-0.19,1.351-0.099,2.621,0.271,3.811c0.37,1.19,0.957,2.232,1.758,3.124
		c0.802,0.893,1.795,1.596,2.982,2.111c1.186,0.515,2.489,0.772,3.908,0.772c1.121,0,2.221-0.166,3.297-0.498
		c1.077-0.331,2.085-0.79,3.025-1.373c0.94-0.584,1.783-1.288,2.528-2.111c0.745-0.824,1.357-1.717,1.836-2.678h-5.699
		c-0.542,0.596-1.193,1.076-1.954,1.442c-0.761,0.366-1.553,0.549-2.377,0.549c-1.122,0-2.067-0.314-2.837-0.944
		c-0.77-0.629-1.28-1.436-1.531-2.42h14.969c0.087-0.297,0.169-0.589,0.243-0.875c0.075-0.286,0.134-0.589,0.179-0.91
		c0.19-1.35,0.099-2.62-0.271-3.811C38.815,39.988,38.229,38.946,37.428,38.053z M24.572,43.169
		c0.526-0.974,1.262-1.772,2.208-2.396c0.946-0.623,1.979-0.935,3.101-0.935c1.099,0,2.039,0.312,2.821,0.935
		c0.782,0.623,1.299,1.421,1.551,2.396H24.572z"/>
	<path d="M59.211,38.053c-0.79-0.892-1.773-1.596-2.948-2.111c-1.175-0.515-2.461-0.772-3.857-0.772
		c-1.42,0-2.783,0.258-4.091,0.772c-1.308,0.515-2.483,1.219-3.524,2.111c-1.041,0.893-1.914,1.934-2.619,3.124
		c-0.705,1.19-1.153,2.461-1.342,3.811c-0.19,1.351-0.099,2.621,0.271,3.811c0.37,1.19,0.951,2.232,1.741,3.124
		c0.79,0.893,1.767,1.596,2.931,2.111c1.163,0.515,2.454,0.772,3.874,0.772c1.121,0,2.187-0.257,3.198-0.772
		c1.01-0.515,1.874-1.207,2.592-2.077l-0.323,2.3h4.807l1.303-9.27c0.19-1.35,0.099-2.62-0.271-3.811
		C60.581,39.988,60.001,38.946,59.211,38.053z M55.585,46.997c-0.363,0.63-0.806,1.173-1.328,1.631
		c-0.523,0.458-1.117,0.824-1.785,1.099c-0.668,0.275-1.357,0.412-2.066,0.412c-0.71,0-1.36-0.137-1.95-0.412
		c-0.591-0.275-1.083-0.641-1.476-1.099c-0.394-0.458-0.683-1.001-0.869-1.631c-0.186-0.629-0.23-1.299-0.13-2.009
		c0.1-0.709,0.331-1.379,0.694-2.008c0.363-0.629,0.805-1.173,1.328-1.631c0.522-0.458,1.117-0.824,1.785-1.099
		c0.668-0.275,1.357-0.412,2.066-0.412c0.709,0,1.359,0.137,1.951,0.412c0.591,0.275,1.083,0.641,1.476,1.099
		c0.393,0.458,0.683,1.002,0.869,1.631c0.186,0.63,0.229,1.299,0.13,2.008C56.18,45.698,55.948,46.368,55.585,46.997z"/>
	<path d="M79.813,37.058c-0.603-0.595-1.31-1.059-2.122-1.39c-0.812-0.332-1.71-0.498-2.694-0.498c-1.396,0-2.749,0.258-4.057,0.772
		c-1.308,0.515-2.483,1.219-3.524,2.111c-1.041,0.893-1.914,1.934-2.619,3.124c-0.705,1.19-1.153,2.461-1.342,3.811
		c-0.19,1.351-0.099,2.621,0.271,3.811c0.37,1.19,0.951,2.232,1.741,3.124c0.79,0.893,1.767,1.596,2.931,2.111
		c1.163,0.515,2.454,0.772,3.874,0.772c1.099,0,2.151-0.246,3.159-0.738c1.007-0.492,1.88-1.161,2.617-2.008l-0.309,2.197h4.807
		l3.474-24.719h-5.15L79.813,37.058z M78.21,46.997c-0.363,0.63-0.806,1.173-1.328,1.631c-0.523,0.458-1.117,0.824-1.785,1.099
		c-0.668,0.275-1.357,0.412-2.066,0.412c-0.71,0-1.36-0.137-1.95-0.412c-0.591-0.275-1.083-0.641-1.476-1.099
		c-0.394-0.458-0.683-1.001-0.869-1.631c-0.186-0.629-0.23-1.299-0.13-2.009c0.1-0.709,0.331-1.379,0.694-2.008
		c0.363-0.629,0.805-1.173,1.328-1.631c0.522-0.458,1.117-0.824,1.785-1.099c0.668-0.275,1.357-0.412,2.066-0.412
		c0.709,0,1.359,0.137,1.951,0.412c0.591,0.275,1.083,0.641,1.476,1.099c0.393,0.458,0.683,1.002,0.869,1.631
		c0.186,0.63,0.229,1.299,0.13,2.008C78.804,45.698,78.573,46.368,78.21,46.997z"/>
	<path d="M105.662,38.053c-0.79-0.892-1.772-1.596-2.948-2.111c-1.175-0.515-2.46-0.772-3.857-0.772
		c-0.984,0-1.931,0.183-2.84,0.549c-0.91,0.366-1.744,0.881-2.5,1.545l1.086-7.725h-5.15l-3.474,24.719h4.807l0.323-2.3
		c0.472,0.87,1.142,1.562,2.008,2.077c0.866,0.515,1.86,0.772,2.981,0.772c1.396,0,2.754-0.257,4.074-0.772
		c1.32-0.515,2.501-1.219,3.542-2.111s1.913-1.934,2.619-3.124c0.704-1.19,1.152-2.46,1.342-3.811c0.19-1.35,0.099-2.62-0.271-3.811
		C107.032,39.988,106.452,38.946,105.662,38.053z M101.83,46.997c-0.363,0.63-0.806,1.173-1.328,1.631
		c-0.523,0.458-1.118,0.824-1.785,1.099c-0.668,0.275-1.357,0.412-2.066,0.412s-1.359-0.137-1.95-0.412
		c-0.591-0.275-1.083-0.641-1.477-1.099c-0.394-0.458-0.684-1.001-0.869-1.631c-0.186-0.629-0.23-1.299-0.13-2.009
		c0.1-0.709,0.331-1.379,0.694-2.008c0.363-0.629,0.805-1.173,1.328-1.631c0.522-0.458,1.117-0.824,1.786-1.099
		c0.668-0.275,1.356-0.412,2.066-0.412s1.359,0.137,1.951,0.412c0.59,0.275,1.083,0.641,1.476,1.099
		c0.393,0.458,0.683,1.002,0.87,1.631c0.186,0.63,0.229,1.299,0.13,2.008C102.425,45.698,102.193,46.368,101.83,46.997z"/>
	<path d="M127.616,38.053c-0.801-0.892-1.796-1.596-2.982-2.111c-1.187-0.515-2.489-0.772-3.908-0.772
		c-1.42,0-2.795,0.258-4.126,0.772c-1.331,0.515-2.523,1.219-3.575,2.111c-1.053,0.893-1.932,1.934-2.637,3.124
		c-0.705,1.19-1.152,2.461-1.342,3.811c-0.19,1.351-0.1,2.621,0.271,3.811c0.37,1.19,0.957,2.232,1.758,3.124
		c0.801,0.893,1.795,1.596,2.982,2.111c1.186,0.515,2.489,0.772,3.909,0.772c1.121,0,2.22-0.166,3.297-0.498
		c1.076-0.331,2.085-0.79,3.025-1.373c0.94-0.584,1.782-1.288,2.528-2.111c0.745-0.824,1.357-1.717,1.835-2.678h-5.699
		c-0.542,0.596-1.193,1.076-1.954,1.442c-0.761,0.366-1.553,0.549-2.377,0.549c-1.122,0-2.067-0.314-2.837-0.944
		c-0.77-0.629-1.28-1.436-1.531-2.42h14.969c0.087-0.297,0.169-0.589,0.243-0.875c0.075-0.286,0.134-0.589,0.179-0.91
		c0.19-1.35,0.099-2.62-0.271-3.811C129.004,39.988,128.418,38.946,127.616,38.053z M114.761,43.169
		c0.526-0.974,1.262-1.772,2.208-2.396c0.946-0.623,1.979-0.935,3.101-0.935c1.099,0,2.038,0.312,2.821,0.935
		c0.782,0.623,1.299,1.421,1.552,2.396H114.761z"/>
	<path d="M139.267,29.539h-5.15l-2.171,15.449c-0.19,1.351-0.134,2.621,0.168,3.811c0.302,1.19,0.814,2.232,1.535,3.124
		c0.721,0.893,1.635,1.596,2.742,2.111c1.106,0.515,2.369,0.772,3.788,0.772h0.686l0.656-4.669c-0.71,0-1.36-0.137-1.951-0.412
		c-0.591-0.275-1.083-0.641-1.476-1.099c-0.394-0.458-0.684-1.001-0.87-1.631c-0.186-0.629-0.229-1.299-0.129-2.009l0.685-4.875
		h5.15l0.618-4.394h-5.15L139.267,29.539z"/>
	<path d="M152.725,29.539h-5.15l-2.171,15.449c-0.19,1.351-0.134,2.621,0.168,3.811c0.302,1.19,0.814,2.232,1.535,3.124
		c0.721,0.893,1.635,1.596,2.742,2.111c1.106,0.515,2.369,0.772,3.788,0.772h0.686l0.656-4.669c-0.71,0-1.36-0.137-1.951-0.412
		c-0.591-0.275-1.083-0.641-1.476-1.099c-0.394-0.458-0.684-1.001-0.87-1.631c-0.186-0.629-0.229-1.299-0.129-2.009l0.685-4.875
		h5.15l0.618-4.394h-5.15L152.725,29.539z"/>
	<path d="M176.505,38.053c-0.801-0.892-1.796-1.596-2.982-2.111c-1.187-0.515-2.489-0.772-3.908-0.772
		c-1.42,0-2.795,0.258-4.126,0.772c-1.331,0.515-2.523,1.219-3.575,2.111c-1.053,0.893-1.932,1.934-2.637,3.124
		c-0.705,1.19-1.152,2.461-1.342,3.811c-0.19,1.351-0.1,2.621,0.271,3.811c0.37,1.19,0.957,2.232,1.758,3.124
		c0.801,0.893,1.795,1.596,2.982,2.111c1.186,0.515,2.489,0.772,3.909,0.772c1.121,0,2.22-0.166,3.297-0.498
		c1.076-0.331,2.085-0.79,3.025-1.373c0.94-0.584,1.782-1.288,2.528-2.111c0.745-0.824,1.357-1.717,1.835-2.678h-5.699
		c-0.542,0.596-1.193,1.076-1.954,1.442c-0.761,0.366-1.553,0.549-2.377,0.549c-1.122,0-2.067-0.314-2.837-0.944
		c-0.77-0.629-1.28-1.436-1.531-2.42h14.969c0.087-0.297,0.169-0.589,0.243-0.875c0.075-0.286,0.134-0.589,0.179-0.91
		c0.19-1.35,0.099-2.62-0.271-3.811C177.892,39.988,177.306,38.946,176.505,38.053z M163.65,43.169
		c0.526-0.974,1.262-1.772,2.208-2.396c0.946-0.623,1.979-0.935,3.101-0.935c1.098,0,2.038,0.312,2.821,0.935
		c0.782,0.623,1.299,1.421,1.552,2.396H163.65z"/>
	<path d="M191.759,35.169c-1.42,0-2.755,0.258-4.005,0.772c-1.251,0.515-2.363,1.219-3.335,2.111
		c-0.972,0.893-1.777,1.934-2.413,3.124c-0.637,1.19-1.05,2.461-1.24,3.811l-1.303,9.27h5.15l1.303-9.27
		c0.1-0.709,0.331-1.379,0.694-2.008c0.363-0.629,0.806-1.173,1.328-1.631c0.522-0.458,1.117-0.824,1.785-1.099
		c0.668-0.275,1.357-0.412,2.066-0.412l0.656-4.669H191.759z"/>
	<path d="M10.849,49.288c-0.755,0-1.447-0.146-2.076-0.439c-0.629-0.292-1.153-0.682-1.571-1.169
		c-0.419-0.488-0.727-1.066-0.926-1.736c-0.177-0.599-0.225-1.233-0.16-1.899l2.039-14.506H2.662l-0.619,4.402l-1.387,9.866
		c-0.202,1.437-0.142,2.789,0.179,4.056c0.321,1.266,0.866,2.375,1.633,3.325c0.767,0.95,1.74,1.699,2.918,2.247
		c1.177,0.548,2.521,0.822,4.032,0.822h0.731h6.204l0.695-4.944h-6.204L10.849,49.288z"/>
</g>
</svg>
